<svg width="191" height="12" viewBox="0 0 191 12" fill="none" xmlns="http://www.w3.org/2000/svg">
<path d="M87.5335 8.09033H6.43311" stroke="#F26F6F" stroke-width="1.5" stroke-linecap="round" stroke-linejoin="round"/>
<path d="M103.466 8.09033H184.567" stroke="#F26F6F" stroke-width="1.5" stroke-linecap="round" stroke-linejoin="round"/>
<path d="M7.21347 11.6559C5.9527 8.71897 0.346191 8.09029 0.346191 8.09029C0.346191 8.09029 5.46317 7.40195 7.21347 4.5293" stroke="#F26F6F" stroke-width="1.5" stroke-linecap="round" stroke-linejoin="round"/>
<path d="M183.805 4.5293C185.065 7.44784 190.677 8.09029 190.677 8.09029C190.677 8.09029 185.532 8.78322 183.805 11.6559" stroke="#F26F6F" stroke-width="1.5" stroke-linecap="round" stroke-linejoin="round"/>
<path d="M92.3133 6.83286C90.7385 5.64433 89.3715 7.021 89.1776 8.20953C89.0993 8.86243 89.2796 9.52 89.6803 10.0432C90.0811 10.5665 90.6709 10.9143 91.325 11.0134C95.5091 11.4722 97.9937 4.00609 95.8139 0.743374L95.4999 0.334961C92.789 3.33611 95.3059 11.4906 99.6563 11.0134C100.31 10.9143 100.9 10.5665 101.301 10.0432C101.702 9.52 101.882 8.86243 101.804 8.20953C101.61 7.01183 100.247 5.63515 98.668 6.83286" stroke="#F26F6F" stroke-width="1.5" stroke-linecap="round" stroke-linejoin="round"/>
</svg>
