<svg width="227" height="226" viewBox="0 0 227 226" fill="none" xmlns="http://www.w3.org/2000/svg">
<path d="M109.403 4.8698C111.639 2.54344 115.361 2.54344 117.597 4.8698C121.222 8.64046 127.044 9.23248 131.354 6.26865C134.012 4.44008 137.658 5.18937 139.381 7.91829C142.172 12.3414 147.756 14.0932 152.574 12.0576C155.546 10.8017 158.967 12.2696 160.104 15.2893C161.948 20.1838 167.065 23.0237 172.194 21.9995C175.358 21.3677 178.413 23.4941 178.92 26.6811C179.741 31.8466 184.181 35.6582 189.411 35.6876C192.638 35.7057 195.203 38.4035 195.057 41.6272C194.822 46.8522 198.404 51.4797 203.521 52.5612C206.678 53.2285 208.647 56.3874 207.856 59.5158C206.573 64.5865 209.15 69.8402 213.945 71.9298C216.903 73.2189 218.196 76.7095 216.791 79.6146C214.514 84.3233 215.981 89.9882 220.257 93.0002C222.895 94.8584 223.459 98.5378 221.498 101.101C218.32 105.255 218.616 111.099 222.198 114.91C224.408 117.261 224.22 120.979 221.783 123.094C217.834 126.523 216.948 132.308 219.689 136.762C221.381 139.51 220.448 143.113 217.635 144.695C213.077 147.259 211.044 152.746 212.833 157.661C213.937 160.694 212.298 164.036 209.224 165.019C204.243 166.613 201.147 171.579 201.91 176.753C202.381 179.945 200.103 182.889 196.894 183.233C191.694 183.792 187.662 188.033 187.368 193.255C187.186 196.477 184.362 198.901 181.15 198.593C175.943 198.093 171.14 201.436 169.801 206.492C168.975 209.611 165.72 211.418 162.636 210.469C157.637 208.931 152.259 211.239 149.929 215.922C148.492 218.811 144.941 219.925 142.11 218.375C137.523 215.862 131.791 217.04 128.566 221.158C126.577 223.699 122.874 224.076 120.413 221.987C116.426 218.603 110.574 218.603 106.587 221.987C104.126 224.076 100.423 223.699 98.4336 221.158C95.2089 217.04 89.477 215.862 84.8897 218.375C82.0595 219.925 78.5079 218.811 77.0706 215.922C74.7409 211.239 69.3634 208.931 64.3642 210.469C61.2798 211.418 58.0253 209.611 57.1989 206.492C55.8596 201.436 51.0567 198.093 45.8503 198.593C42.6381 198.901 39.8138 196.477 39.6323 193.255C39.3381 188.033 35.3064 183.792 30.106 183.233C26.8975 182.889 24.619 179.945 25.0898 176.753C25.8528 171.579 22.7575 166.613 17.7758 165.019C14.7023 164.036 13.0631 160.694 14.1668 157.661C15.9558 152.746 13.9235 147.259 9.36464 144.695C6.55199 143.113 5.619 139.51 7.31055 136.762C10.0523 132.308 9.16617 126.523 5.21677 123.094C2.78012 120.979 2.59159 117.261 4.80169 114.91C8.38392 111.099 8.6803 105.255 5.50202 101.101L3.51653 102.62L5.50202 101.101C3.54113 98.5378 4.10478 94.8584 6.74296 93.0002C11.019 89.9882 12.4858 84.3233 10.2087 79.6146C8.80387 76.7095 10.0966 73.2189 13.0549 71.9298C17.8497 69.8402 20.4268 64.5865 19.1442 59.5158C18.3529 56.3874 20.3218 53.2285 23.479 52.5612C28.5963 51.4797 32.1782 46.8523 31.9426 41.6272C31.7972 38.4035 34.3617 35.7057 37.5886 35.6876C42.8189 35.6582 47.259 31.8466 48.08 26.6811C48.5865 23.4941 51.6416 21.3677 54.8061 21.9995C59.9352 23.0237 65.0516 20.1838 66.8956 15.2893C68.0333 12.2695 71.4539 10.8017 74.4264 12.0576C79.2444 14.0932 84.8278 12.3414 87.6193 7.91829C89.3416 5.18937 92.9876 4.44009 95.6465 6.26866C99.9561 9.23247 105.778 8.64046 109.403 4.8698Z" stroke="#F26F6F" stroke-width="5"/>
</svg>
