<svg width="200" height="200" viewBox="0 0 200 200" fill="none" xmlns="http://www.w3.org/2000/svg">
<path d="M102.181 2.23093L108.865 4.26271C110.093 4.63618 111.38 4.78114 112.661 4.69041L119.629 4.19679C121.112 4.09176 122.592 4.42967 123.882 5.16761L129.946 8.63568C131.061 9.27315 132.283 9.70078 133.552 9.89733L140.455 10.9666C141.924 11.1942 143.292 11.853 144.386 12.8596L149.526 17.59C150.471 18.4596 151.567 19.1484 152.76 19.6224L159.253 22.201C160.634 22.7497 161.821 23.6964 162.664 24.9212L166.622 30.6768C167.35 31.7347 168.265 32.6502 169.323 33.3779L175.079 37.3365C176.304 38.1788 177.25 39.3661 177.799 40.7475L180.378 47.2397C180.852 48.433 181.54 49.5293 182.41 50.4741L187.14 55.6142C188.147 56.7079 188.806 58.0761 189.033 59.545L190.103 66.4482C190.299 67.7171 190.727 68.9392 191.364 70.0538L194.832 76.1176C195.57 77.4079 195.908 78.8884 195.803 80.3711L195.31 87.3391C195.219 88.6199 195.364 89.9065 195.737 91.1351L197.769 97.8186C198.201 99.2407 198.201 100.759 197.769 102.181L195.737 108.865C195.364 110.093 195.219 111.38 195.31 112.661L195.803 119.629C195.908 121.112 195.57 122.592 194.832 123.882L191.364 129.946C190.727 131.061 190.299 132.283 190.103 133.552L189.033 140.455C188.806 141.924 188.147 143.292 187.14 144.386L182.41 149.526C181.54 150.471 180.852 151.567 180.378 152.76L177.799 159.253C177.25 160.634 176.304 161.821 175.079 162.664L169.323 166.622C168.265 167.35 167.35 168.265 166.622 169.323L162.664 175.079C161.821 176.304 160.634 177.25 159.253 177.799L152.76 180.378C151.567 180.852 150.471 181.54 149.526 182.41L144.386 187.14C143.292 188.147 141.924 188.806 140.455 189.033L133.552 190.103C132.283 190.299 131.061 190.727 129.946 191.364L123.882 194.832C122.592 195.57 121.112 195.908 119.629 195.803L112.661 195.31C111.38 195.219 110.093 195.364 108.865 195.737L102.181 197.769C100.759 198.201 99.2407 198.201 97.8186 197.769L91.1351 195.737C89.9065 195.364 88.6199 195.219 87.3391 195.31L80.3711 195.803C78.8884 195.908 77.4079 195.57 76.1176 194.832L70.0538 191.364C68.9392 190.727 67.7171 190.299 66.4482 190.103L59.545 189.033C58.0761 188.806 56.7079 188.147 55.6142 187.14L50.4741 182.41C49.5293 181.54 48.433 180.852 47.2397 180.378L40.7475 177.799C39.3661 177.25 38.1788 176.304 37.3365 175.079L33.3779 169.323C32.6502 168.265 31.7347 167.35 30.6768 166.622L24.9212 162.664C23.6964 161.821 22.7497 160.634 22.201 159.253L19.6224 152.76C19.1484 151.567 18.4596 150.471 17.59 149.526L12.8596 144.386C11.853 143.292 11.1942 141.924 10.9666 140.455L9.89733 133.552C9.70078 132.283 9.27315 131.061 8.63568 129.946L5.16762 123.882C4.42967 122.592 4.09176 121.112 4.19679 119.629L4.69041 112.661C4.78114 111.38 4.63618 110.093 4.26271 108.865L2.23093 102.181C1.7986 100.759 1.7986 99.2407 2.23093 97.8186L4.26271 91.1351C4.63618 89.9065 4.78114 88.6199 4.69041 87.3391L4.19679 80.3711C4.09176 78.8884 4.42967 77.4079 5.16761 76.1176L8.63568 70.0538C9.27315 68.9392 9.70078 67.7171 9.89733 66.4482L10.9666 59.545C11.1942 58.0761 11.853 56.7079 12.8596 55.6142L17.59 50.4741C18.4596 49.5293 19.1484 48.433 19.6224 47.2397L22.201 40.7475C22.7497 39.3661 23.6964 38.1788 24.9212 37.3365L30.6768 33.3779C31.7347 32.6502 32.6502 31.7347 33.3779 30.6768L37.3365 24.9212C38.1788 23.6964 39.3661 22.7497 40.7475 22.201L47.2397 19.6224C48.433 19.1484 49.5293 18.4596 50.4741 17.59L55.6142 12.8596C56.7079 11.853 58.0761 11.1942 59.545 10.9666L66.4482 9.89733C67.7171 9.70078 68.9392 9.27315 70.0538 8.63568L76.1176 5.16762C77.4079 4.42967 78.8884 4.09176 80.3711 4.19679L87.3391 4.69041C88.6199 4.78114 89.9065 4.63618 91.1351 4.26271L97.8186 2.23093C99.2407 1.7986 100.759 1.7986 102.181 2.23093Z" stroke="#CECECE" stroke-width="3"/>
</svg>
