<svg width="231" height="232" viewBox="0 0 231 232" fill="none" xmlns="http://www.w3.org/2000/svg">
<path d="M108.486 12.3466L115.5 5.05035L122.514 12.3466C124.38 14.2878 127.377 14.5925 129.596 13.0667L137.935 7.33174L143.336 15.8905C144.773 18.1676 147.648 19.0694 150.128 18.0214L159.451 14.0825L163.019 23.5534C163.968 26.0731 166.602 27.5351 169.243 27.0079L179.168 25.0262L180.756 35.0215C181.179 37.6808 183.465 39.643 186.157 39.6581L196.278 39.7149L195.822 49.8254C195.701 52.5153 197.545 54.8975 200.179 55.4543L210.081 57.5471L207.599 67.3589C206.939 69.9693 208.266 72.674 210.734 73.7497L220.012 77.793L215.606 86.9043C214.434 89.3283 215.189 92.2447 217.39 93.7952L225.664 99.6234L219.514 107.661C217.878 109.8 218.031 112.808 219.875 114.77L226.807 122.145L219.164 128.78C217.131 130.546 216.675 133.523 218.087 135.816L223.392 144.435L214.57 149.396C212.224 150.716 211.177 153.541 212.098 156.071L215.56 165.582L205.92 168.666C203.356 169.486 201.762 172.043 202.155 174.706L203.632 184.719L193.569 185.799C190.891 186.087 188.816 188.27 188.665 190.959L188.095 201.063L178.021 200.096C175.34 199.839 172.868 201.559 172.178 204.162L169.587 213.946L159.913 210.97C157.34 210.178 154.571 211.366 153.372 213.777L148.864 222.838L139.987 217.977C137.626 216.683 134.675 217.289 133.015 219.409L126.775 227.378L119.059 220.829C117.006 219.086 113.994 219.086 111.941 220.829L104.225 227.378L97.985 219.409C96.325 217.289 93.3741 216.683 91.0126 217.977L82.1361 222.838L77.6281 213.777C76.4287 211.366 73.6604 210.178 71.0868 210.97L61.4133 213.946L58.8216 204.162C58.132 201.559 55.6595 199.839 52.9792 200.096L42.9048 201.063L42.3355 190.959C42.184 188.27 40.1085 186.087 37.4313 185.799L27.3683 184.719L28.8448 174.706C29.2376 172.043 27.6441 169.486 25.0795 168.666L15.44 165.582L18.9017 156.071C19.8227 153.541 18.7765 150.716 16.4295 149.396L7.60815 144.435L12.9134 135.816C14.3249 133.523 13.8687 130.546 11.8355 128.78L4.1934 122.145L11.125 114.77C12.9692 112.808 13.1218 109.8 11.4856 107.661L5.33555 99.6234L13.6098 93.7952C15.8111 92.2447 16.5662 89.3284 15.394 86.9043L10.9879 77.793L20.2659 73.7497C22.7343 72.674 24.061 69.9693 23.4007 67.3589L20.9189 57.5471L30.8209 55.4543C33.4553 54.8975 35.2993 52.5153 35.178 49.8254L34.7221 39.7149L44.8427 39.6581C47.5353 39.643 49.821 37.6808 50.2437 35.0215L51.8324 25.0262L61.7573 27.0079C64.3977 27.5351 67.0317 26.0731 67.981 23.5534L71.5492 14.0825L80.872 18.0214C83.3523 19.0694 86.2266 18.1676 87.6637 15.8905L93.0654 7.33174L101.404 13.0667C103.623 14.5925 106.62 14.2878 108.486 12.3466Z" stroke="#F26F6F" stroke-width="7"/>
</svg>
