<svg width="502" height="334" viewBox="0 0 502 334" fill="none" xmlns="http://www.w3.org/2000/svg">
<path d="M460.5 0L465.529 17.3386L477.176 3.54464L474.719 21.4299L490.969 13.5656L481.449 28.905L499.493 28.3303L484.557 38.4715L501.275 45.2857L483.506 48.4751L496.007 61.5L478.477 57.1863L484.599 74.1697L470.339 63.0987L469.024 81.104L460.5 65.19L451.976 81.104L450.661 63.0987L436.401 74.1697L442.523 57.1863L424.993 61.5L437.494 48.4751L419.725 45.2857L436.443 38.4715L421.507 28.3303L439.551 28.905L430.031 13.5656L446.281 21.4299L443.824 3.54464L455.471 17.3386L460.5 0Z" fill="#F26F6F"/>
<path d="M196.011 33.0948C196.376 30.4707 192.662 28.3109 189.876 28.0858C188.546 27.9733 187.167 28.1773 185.908 27.7411C183.186 26.7914 182.095 23.2668 179.429 22.113C177.438 21.2759 175.152 22.0216 173.224 22.9924C171.296 23.9633 169.383 25.1874 167.23 25.3281C165.359 25.4477 163.319 24.7512 161.679 25.6658C160.455 26.3693 159.815 27.7763 158.689 28.5853C157.518 29.3096 156.162 29.6786 154.785 29.6476C153.412 29.6104 152.044 29.8324 150.754 30.3019C149.509 30.8717 148.482 32.1943 148.742 33.538L196.011 33.0948Z" fill="#F5F5F5"/>
<path d="M382.799 188.366C383.404 183.997 377.235 180.402 372.598 180.029C370.389 179.846 368.096 180.184 366 179.453C361.469 177.877 359.668 172.016 355.229 170.145C351.922 168.738 348.109 169.997 344.901 171.608C341.693 173.219 338.528 175.253 334.94 175.485C331.823 175.682 328.439 174.528 325.71 176.055C323.677 177.187 322.614 179.53 320.743 180.909C318.872 182.288 316.522 182.548 314.242 182.675C311.963 182.801 309.613 182.815 307.545 183.765C305.477 184.715 303.76 186.903 304.189 189.14L382.799 188.366Z" fill="#EBEBEB"/>
<path d="M148.249 81.7425C148.706 78.4008 143.986 75.6501 140.44 75.3616C138.752 75.228 137 75.4883 135.396 74.9255C131.928 73.7154 130.542 69.2341 127.151 67.806C124.625 66.7366 121.706 67.6934 119.25 68.9245C116.795 70.1557 114.375 71.7386 111.631 71.8934C109.246 72.0411 106.658 71.1898 104.596 72.3225C103.041 73.1948 102.232 74.9818 100.797 76.037C99.3621 77.0923 97.5682 77.2963 95.8235 77.3877C94.0788 77.4792 92.3059 77.5003 90.7019 78.2249C89.0979 78.9495 87.8105 80.6239 88.1341 82.3334L148.249 81.7425Z" fill="#F5F5F5"/>
<path d="M335.009 263.846L319.355 331.805L325.975 331.783L341.657 264.486L335.009 263.846Z" fill="#E0E0E0"/>
<path d="M363.559 263.846L379.268 331.805H385.557L370.362 263.846H363.559Z" fill="#E0E0E0"/>
<path d="M324.443 212.806L333.357 259.596H343.48L333.962 212.806H324.443Z" fill="#E0E0E0"/>
<path d="M169.23 263.846L156.461 331.805H162.961L176.3 263.846H169.23Z" fill="#E0E0E0"/>
<path d="M196.072 263.846L210.663 331.432H217.086L202.995 263.846H196.072Z" fill="#E0E0E0"/>
<path d="M158.66 212.806L167.574 259.596H177.697L168.179 212.806H158.66Z" fill="#E0E0E0"/>
<path d="M138.611 208.557L140.433 217.062H343.782L341.412 208.557H138.611Z" fill="#EBEBEB"/>
<path d="M142.494 225.075L144.647 233.581H346.617L344.781 225.075H142.494Z" fill="#EBEBEB"/>
<path d="M146.512 242.177L148.51 250.683H349.861L347.954 242.177H146.512Z" fill="#EBEBEB"/>
<path d="M379.026 259.596H161.902V268.102H379.026V259.596Z" fill="#EBEBEB"/>
<path d="M291.046 154.253C289.368 154.253 287.72 153.813 286.266 152.975C284.812 152.138 283.604 150.933 282.763 149.481C281.922 148.029 281.478 146.382 281.475 144.704C281.471 143.026 281.909 141.377 282.744 139.922L310.181 92.0837C311.009 90.6199 312.212 89.4031 313.666 88.5585C315.12 87.714 316.773 87.2722 318.454 87.2787C320.131 87.2688 321.78 87.7037 323.233 88.5392C324.687 89.3747 325.893 90.5808 326.728 92.0345L354.446 139.711C355.289 141.164 355.735 142.812 355.739 144.492C355.743 146.171 355.306 147.822 354.47 149.279C353.635 150.736 352.431 151.947 350.98 152.792C349.528 153.636 347.88 154.084 346.201 154.091L291.053 154.26L291.046 154.253ZM318.483 90.1279C317.302 90.1243 316.142 90.4353 315.122 91.0288C314.102 91.6223 313.259 92.477 312.679 93.5048L285.242 141.343C284.656 142.364 284.349 143.52 284.351 144.697C284.353 145.873 284.664 147.028 285.253 148.047C285.843 149.065 286.689 149.91 287.708 150.498C288.727 151.086 289.883 151.396 291.06 151.396L346.208 151.228C347.382 151.221 348.533 150.906 349.548 150.314C350.562 149.723 351.403 148.876 351.988 147.858C352.572 146.84 352.879 145.686 352.879 144.512C352.878 143.338 352.569 142.185 351.984 141.167L324.265 93.4978C323.686 92.4733 322.844 91.6214 321.826 91.0293C320.809 90.4372 319.653 90.1261 318.475 90.1279H318.483Z" fill="#EBEBEB"/>
<path d="M313.096 110.825L314.383 128.673C314.432 129.378 314.738 130.039 315.242 130.533C315.747 131.027 316.415 131.319 317.12 131.354C317.861 131.392 318.59 131.144 319.154 130.661C319.718 130.178 320.075 129.497 320.152 128.758L321.981 110.797C322.013 110.477 321.976 110.153 321.874 109.847C321.772 109.542 321.605 109.261 321.387 109.025C321.168 108.788 320.902 108.6 320.605 108.474C320.309 108.348 319.989 108.286 319.666 108.293L315.312 108.391C315.004 108.398 314.701 108.467 314.421 108.595C314.14 108.722 313.889 108.906 313.682 109.133C313.475 109.361 313.316 109.628 313.215 109.919C313.114 110.21 313.074 110.518 313.096 110.825Z" fill="#EBEBEB"/>
<path d="M321.939 141.358C321.674 142.177 321.173 142.899 320.498 143.433C319.822 143.967 319.004 144.288 318.146 144.358C317.288 144.427 316.429 144.24 315.677 143.821C314.925 143.402 314.314 142.77 313.921 142.004C313.528 141.238 313.371 140.373 313.47 139.518C313.569 138.663 313.919 137.856 314.475 137.2C315.032 136.543 315.771 136.067 316.599 135.83C317.426 135.594 318.306 135.607 319.125 135.87C319.671 136.045 320.177 136.326 320.613 136.696C321.05 137.067 321.41 137.52 321.671 138.03C321.932 138.54 322.091 139.096 322.137 139.667C322.183 140.238 322.116 140.813 321.939 141.358Z" fill="#EBEBEB"/>
<path d="M389.138 331.72C389.138 331.818 319.898 331.903 234.506 331.903C149.115 331.903 79.8613 331.818 79.8613 331.72C79.8613 331.622 149.087 331.537 234.506 331.537C319.926 331.537 389.138 331.614 389.138 331.72Z" fill="#263238"/>
<path d="M282 256.248L210.946 256.198C202.405 256.198 195.469 248.917 195.469 239.94V52.8072C195.469 43.8304 202.405 36.5491 210.946 36.5562L281.965 36.5984C290.513 36.5984 297.442 43.8797 297.442 52.8564L297.407 239.99C297.477 248.973 290.548 256.248 282 256.248Z" fill="#263238"/>
<path d="M281.98 43.2253H268.205C267.276 43.2709 266.402 43.683 265.776 44.3713C265.15 45.0596 264.822 45.968 264.864 46.8977V49.5217C264.906 50.4526 264.577 51.362 263.949 52.0505C263.321 52.739 262.446 53.1503 261.515 53.194H234.676C233.745 53.1485 232.871 52.7355 232.244 52.0456C231.618 51.3558 231.291 50.4455 231.334 49.5147V46.8977C231.377 45.968 231.049 45.0596 230.422 44.3713C229.796 43.683 228.922 43.2709 227.993 43.2253H211.109C205.122 43.2253 200.268 48.3258 200.268 54.6151V237.26C200.268 243.542 205.115 248.643 211.095 248.65L281.98 248.692C287.967 248.692 292.821 243.598 292.821 237.309L292.807 54.6362C292.807 48.3047 287.967 43.2253 281.98 43.2253Z" fill="white"/>
<path d="M219.586 231.407V235.874C219.585 235.962 219.561 236.047 219.516 236.123C219.472 236.198 219.408 236.26 219.331 236.302C219.254 236.345 219.168 236.366 219.08 236.363C218.993 236.361 218.907 236.335 218.833 236.289L215.315 234.052C215.246 234.007 215.188 233.946 215.148 233.873C215.109 233.801 215.088 233.72 215.088 233.637C215.088 233.554 215.109 233.473 215.148 233.4C215.188 233.328 215.246 233.266 215.315 233.222L218.833 230.985C218.908 230.938 218.994 230.912 219.082 230.91C219.17 230.908 219.257 230.93 219.334 230.973C219.411 231.016 219.475 231.079 219.519 231.155C219.563 231.232 219.586 231.318 219.586 231.407Z" fill="#E0E0E0"/>
<path d="M248.471 233.595C248.47 234.204 248.288 234.799 247.949 235.305C247.609 235.811 247.127 236.204 246.564 236.437C246.001 236.669 245.382 236.729 244.785 236.609C244.187 236.489 243.639 236.195 243.209 235.764C242.778 235.333 242.486 234.784 242.367 234.186C242.249 233.589 242.31 232.97 242.544 232.407C242.777 231.844 243.172 231.363 243.679 231.025C244.185 230.687 244.781 230.506 245.39 230.506C246.208 230.508 246.992 230.834 247.569 231.413C248.147 231.992 248.471 232.777 248.471 233.595Z" fill="#E0E0E0"/>
<path d="M274.972 230.907H271.919C271.193 230.907 270.604 231.496 270.604 232.223V235.29C270.604 236.016 271.193 236.605 271.919 236.605H274.972C275.699 236.605 276.288 236.016 276.288 235.29V232.223C276.288 231.496 275.699 230.907 274.972 230.907Z" fill="#E0E0E0"/>
<path d="M280.792 132.135C285.329 113.349 273.779 94.4422 254.994 89.9045C236.208 85.3667 217.301 96.9168 212.763 115.702C208.225 134.488 219.776 153.395 238.561 157.933C257.347 162.471 276.254 150.921 280.792 132.135Z" fill="#F5F5F5"/>
<path d="M248.338 139.325C248.336 139.897 248.165 140.456 247.846 140.93C247.527 141.405 247.074 141.775 246.544 141.992C246.015 142.209 245.433 142.265 244.873 142.151C244.312 142.038 243.797 141.761 243.394 141.355C242.991 140.948 242.717 140.432 242.608 139.87C242.499 139.309 242.558 138.727 242.78 138.2C243.001 137.672 243.374 137.222 243.851 136.906C244.328 136.59 244.888 136.423 245.46 136.426C246.225 136.432 246.957 136.739 247.496 137.282C248.035 137.825 248.338 138.559 248.338 139.325Z" fill="#455A64"/>
<path d="M239.67 135.61C240.408 134.816 241.299 134.18 242.29 133.74C243.281 133.3 244.35 133.066 245.434 133.051C246.518 133.037 247.593 133.242 248.595 133.656C249.598 134.069 250.505 134.681 251.264 135.455C252.741 136.947 255.049 134.66 253.572 133.169C252.51 132.099 251.244 131.252 249.85 130.678C248.456 130.104 246.961 129.814 245.453 129.827C243.945 129.839 242.455 130.153 241.071 130.75C239.686 131.347 238.435 132.215 237.391 133.302C235.949 134.815 238.235 137.13 239.684 135.61H239.67Z" fill="#455A64"/>
<path d="M229.85 122.173C234.246 118.374 239.495 115.982 245.369 115.968C251.233 115.884 256.908 118.043 261.233 122.004C262.753 123.411 265.067 121.153 263.541 119.718C258.61 115.151 252.124 112.635 245.404 112.683C238.643 112.683 232.635 115.497 227.577 119.837C225.994 121.209 228.281 123.51 229.871 122.145L229.85 122.173Z" fill="#455A64"/>
<path d="M233.726 129.609C235.192 127.973 236.981 126.659 238.981 125.749C240.98 124.839 243.146 124.353 245.343 124.322C247.539 124.291 249.718 124.715 251.742 125.568C253.767 126.421 255.592 127.685 257.104 129.279C258.567 130.777 260.875 128.491 259.411 126.985C257.598 125.09 255.414 123.587 252.996 122.57C250.578 121.553 247.977 121.044 245.353 121.073C242.73 121.103 240.141 121.671 237.747 122.743C235.352 123.814 233.203 125.366 231.433 127.302C230.026 128.835 232.298 131.15 233.726 129.609Z" fill="#455A64"/>
<path d="M272.764 116.044C273.618 111.219 270.398 106.616 265.574 105.763C260.749 104.91 256.146 108.129 255.293 112.954C254.44 117.778 257.659 122.381 262.484 123.235C267.308 124.088 271.911 120.868 272.764 116.044Z" fill="#FF725E"/>
<path d="M267.686 112.018L266.428 110.76L260.792 116.396L262.05 117.654L267.686 112.018Z" fill="white"/>
<path d="M262.053 110.753L260.795 112.011L266.431 117.648L267.69 116.389L262.053 110.753Z" fill="white"/>
<path d="M244.427 62.762C244.867 62.4974 245.34 62.2916 245.834 62.1499L246.122 60.7429L248.465 60.7007L248.803 62.1077C249.294 62.2324 249.768 62.4216 250.21 62.6705L251.385 61.8826L253.073 63.5147L252.334 64.7247C252.599 65.165 252.805 65.638 252.946 66.1318L254.353 66.4202L254.396 68.7699L252.989 69.1006C252.866 69.5921 252.679 70.0652 252.433 70.5076L253.207 71.6895L251.581 73.3779L250.371 72.6744C249.931 72.9363 249.458 73.1397 248.964 73.2794L248.676 74.6864L246.333 74.7286L245.996 73.3216C245.504 73.1956 245.031 73.0064 244.589 72.7588L243.4 73.5327L241.711 71.9076L242.45 70.6975C242.185 70.2577 241.979 69.7845 241.838 69.2905L240.431 69.0021L240.389 66.6594L241.796 66.3217C241.919 65.8306 242.106 65.3577 242.351 64.9147L241.578 63.7258L243.21 62.0444L244.42 62.7479L244.427 62.762ZM245.672 65.8926C245.326 66.2509 245.094 66.7039 245.005 67.1942C244.917 67.6844 244.975 68.1899 245.174 68.6468C245.373 69.1037 245.703 69.4913 246.122 69.7608C246.541 70.0302 247.03 70.1693 247.528 70.1604C248.027 70.1516 248.511 69.9952 248.92 69.711C249.329 69.4268 249.645 69.0277 249.827 68.5641C250.01 68.1004 250.05 67.5931 249.944 67.1063C249.838 66.6195 249.59 66.1751 249.232 65.8293C248.751 65.3659 248.106 65.1122 247.439 65.1241C246.771 65.136 246.136 65.4124 245.672 65.8926Z" fill="#E0E0E0"/>
<path d="M214.674 68.0029C213.971 68.0029 212.993 68.0029 212.057 68.0029C210.939 68.0029 209.82 68.0029 209.039 68.0029C208.946 68.0029 208.857 67.9658 208.791 67.8999C208.725 67.8339 208.688 67.7444 208.688 67.6511C208.687 67.6053 208.695 67.5597 208.712 67.5171C208.729 67.4744 208.754 67.4356 208.786 67.4028C208.818 67.3701 208.856 67.344 208.899 67.3263C208.941 67.3085 208.986 67.2994 209.032 67.2994C209.813 67.2994 210.946 67.2994 212.071 67.2994C213.197 67.2994 214.309 67.3416 215.089 67.2994C215.135 67.2985 215.181 67.3067 215.224 67.3236C215.266 67.3405 215.305 67.3657 215.338 67.3978C215.371 67.4299 215.397 67.4683 215.414 67.5105C215.432 67.5528 215.441 67.5982 215.441 67.6441C215.442 67.6903 215.434 67.7362 215.417 67.7793C215.4 67.8223 215.375 67.8616 215.343 67.8949C215.311 67.9282 215.273 67.9549 215.231 67.9734C215.188 67.992 215.143 68.002 215.097 68.0029H214.674Z" fill="#263238"/>
<path d="M211.179 70.3668C211.129 70.3658 211.081 70.3547 211.036 70.3341C210.991 70.3135 210.951 70.2839 210.918 70.2472L208.808 67.8342C208.75 67.7677 208.719 67.6828 208.719 67.595C208.719 67.5071 208.75 67.4222 208.808 67.3558L210.918 65.1608C210.949 65.1235 210.987 65.0929 211.03 65.071C211.074 65.0491 211.121 65.0364 211.169 65.0336C211.217 65.0307 211.266 65.0379 211.311 65.0546C211.357 65.0714 211.398 65.0973 211.433 65.1308C211.468 65.1642 211.496 65.2046 211.514 65.2492C211.533 65.2939 211.542 65.3419 211.541 65.3903C211.541 65.4387 211.53 65.4864 211.51 65.5304C211.49 65.5745 211.461 65.6139 211.425 65.6463L209.561 67.609L211.488 69.7829C211.533 69.8339 211.562 69.8968 211.572 69.964C211.582 70.0311 211.572 70.0997 211.544 70.1615C211.515 70.2232 211.47 70.2755 211.413 70.3119C211.355 70.3483 211.289 70.3674 211.221 70.3668H211.179Z" fill="#263238"/>
<path d="M283.696 65.9558C284.298 65.9558 284.786 65.4676 284.786 64.8653C284.786 64.2631 284.298 63.7749 283.696 63.7749C283.094 63.7749 282.605 64.2631 282.605 64.8653C282.605 65.4676 283.094 65.9558 283.696 65.9558Z" fill="#263238"/>
<path d="M284.787 68.3124C284.788 68.53 284.725 68.7432 284.605 68.9247C284.485 69.1063 284.313 69.248 284.112 69.332C283.912 69.4159 283.69 69.4382 283.477 69.3961C283.263 69.354 283.067 69.2493 282.913 69.0954C282.759 68.9415 282.655 68.7453 282.613 68.5318C282.57 68.3182 282.593 68.097 282.677 67.8962C282.761 67.6954 282.902 67.524 283.084 67.404C283.265 67.2839 283.479 67.2206 283.696 67.2219C283.985 67.2219 284.263 67.3368 284.467 67.5413C284.672 67.7458 284.787 68.0232 284.787 68.3124Z" fill="#263238"/>
<path d="M283.696 72.8501C284.298 72.8501 284.786 72.3619 284.786 71.7596C284.786 71.1574 284.298 70.6692 283.696 70.6692C283.094 70.6692 282.605 71.1574 282.605 71.7596C282.605 72.3619 283.094 72.8501 283.696 72.8501Z" fill="#263238"/>
<path d="M223.073 172.045C221.414 172.226 219.745 172.287 218.078 172.228C216.413 172.287 214.746 172.226 213.09 172.045C214.746 171.864 216.413 171.803 218.078 171.862C219.745 171.803 221.414 171.864 223.073 172.045Z" fill="#263238"/>
<path d="M240.99 183.723C240.99 183.821 234.856 183.906 227.293 183.906C219.73 183.906 213.596 183.821 213.596 183.723C213.596 183.624 219.723 183.54 227.293 183.54C234.863 183.54 240.99 183.624 240.99 183.723Z" fill="#263238"/>
<path d="M240.99 195.338C240.99 195.436 234.856 195.521 227.293 195.521C219.73 195.521 213.596 195.436 213.596 195.338C213.596 195.239 219.723 195.155 227.293 195.155C234.863 195.155 240.99 195.225 240.99 195.338Z" fill="#263238"/>
<path d="M277.204 179.34H267.186C264.765 179.34 262.803 181.301 262.803 183.72C262.803 186.138 264.765 188.099 267.186 188.099H277.204C279.624 188.099 281.586 186.138 281.586 183.72C281.586 181.301 279.624 179.34 277.204 179.34Z" fill="#EBEBEB"/>
<path d="M270.802 183.723C270.802 184.449 270.586 185.159 270.183 185.763C269.779 186.367 269.206 186.838 268.535 187.116C267.864 187.394 267.125 187.467 266.413 187.325C265.701 187.183 265.046 186.833 264.533 186.32C264.019 185.806 263.669 185.152 263.528 184.44C263.386 183.727 263.459 182.989 263.737 182.318C264.015 181.647 264.485 181.073 265.089 180.67C265.693 180.266 266.403 180.051 267.129 180.051C267.612 180.051 268.089 180.146 268.535 180.33C268.98 180.515 269.385 180.785 269.726 181.126C270.067 181.467 270.338 181.872 270.522 182.318C270.707 182.763 270.802 183.241 270.802 183.723Z" fill="#E0E0E0"/>
<path d="M277.211 199.707H267.186C266.023 199.707 264.908 199.245 264.086 198.423C263.264 197.601 262.803 196.486 262.803 195.324C262.803 194.162 263.264 193.047 264.086 192.225C264.908 191.403 266.023 190.941 267.186 190.941H277.211C278.373 190.941 279.488 191.403 280.31 192.225C281.132 193.047 281.593 194.162 281.593 195.324C281.593 196.486 281.132 197.601 280.31 198.423C279.488 199.245 278.373 199.707 277.211 199.707Z" fill="#EBEBEB"/>
<path d="M267.129 198.996C269.158 198.996 270.802 197.352 270.802 195.324C270.802 193.296 269.158 191.652 267.129 191.652C265.101 191.652 263.457 193.296 263.457 195.324C263.457 197.352 265.101 198.996 267.129 198.996Z" fill="#E0E0E0"/>
<path d="M240.99 207.002C240.99 207.108 234.856 207.185 227.293 207.185C219.73 207.185 213.596 207.108 213.596 207.002C213.596 206.897 219.723 206.819 227.293 206.819C234.863 206.819 240.99 206.904 240.99 207.002Z" fill="#263238"/>
<path d="M277.211 212.679H267.186C266.61 212.68 266.041 212.568 265.509 212.348C264.977 212.129 264.494 211.807 264.087 211.4C263.68 210.994 263.357 210.511 263.136 209.98C262.916 209.448 262.803 208.879 262.803 208.303C262.803 207.141 263.264 206.026 264.086 205.204C264.908 204.382 266.023 203.921 267.186 203.921H277.211C278.373 203.921 279.488 204.382 280.31 205.204C281.132 206.026 281.593 207.141 281.593 208.303C281.593 208.879 281.48 209.448 281.26 209.98C281.039 210.511 280.716 210.994 280.309 211.4C279.902 211.807 279.419 212.129 278.887 212.348C278.356 212.568 277.786 212.68 277.211 212.679Z" fill="#EBEBEB"/>
<path d="M267.129 211.976C269.158 211.976 270.802 210.332 270.802 208.303C270.802 206.275 269.158 204.631 267.129 204.631C265.101 204.631 263.457 206.275 263.457 208.303C263.457 210.332 265.101 211.976 267.129 211.976Z" fill="#E0E0E0"/>
<path d="M360.898 55.5213C361.908 49.2691 357.657 43.3825 351.405 42.3732C345.153 41.3639 339.266 45.6142 338.257 51.8664C337.248 58.1186 341.498 64.0052 347.75 65.0145C354.003 66.0237 359.889 61.7735 360.898 55.5213Z" fill="#FF725E"/>
<path d="M347.944 79.3364C347.881 79.3364 347.824 77.2259 347.824 74.6018C347.824 71.9778 347.881 69.8743 347.944 69.8743C348.066 71.447 348.106 73.025 348.063 74.6018C348.106 76.181 348.066 77.7614 347.944 79.3364Z" fill="#FF725E"/>
<path d="M341.338 67.2082C341.394 67.2082 340.318 69.2203 338.932 71.6192C337.546 74.0182 336.371 75.9458 336.315 75.9106C336.258 75.8755 337.335 73.9056 338.721 71.4996C340.107 69.0936 341.281 67.1731 341.338 67.2082Z" fill="#FF725E"/>
<path d="M334.558 62.9868C333.721 63.8078 332.827 64.5694 331.884 65.2662C330.992 66.0285 330.052 66.7335 329.07 67.3767C329.907 66.5557 330.801 65.7941 331.744 65.0973C332.633 64.3312 333.573 63.6261 334.558 62.9868Z" fill="#FF725E"/>
<path d="M359.385 74.6723C359.247 74.2958 359.146 73.9072 359.082 73.5115C358.92 72.808 358.681 71.795 358.379 70.6975C358.076 69.6 357.788 68.6292 357.57 67.9257C357.423 67.5506 357.315 67.1617 357.246 66.7649C357.446 67.1149 357.609 67.4851 357.732 67.8694C357.992 68.5729 358.315 69.5367 358.611 70.6342C358.906 71.7317 359.11 72.7447 359.237 73.4482C359.33 73.8498 359.379 74.2602 359.385 74.6723Z" fill="#FF725E"/>
<path d="M371.013 66.4202C369.832 65.5442 368.7 64.6048 367.622 63.6062C366.492 62.6715 365.414 61.6757 364.393 60.6233C365.573 61.4993 366.705 62.4387 367.783 63.4373C368.913 64.372 369.991 65.3678 371.013 66.4202Z" fill="#FF725E"/>
<path d="M375.467 55.0797C374.993 55.0507 374.523 54.9848 374.06 54.8828C373.209 54.7421 372.034 54.5592 370.732 54.4114C369.431 54.2637 368.242 54.1722 367.384 54.1159C366.912 54.115 366.441 54.0749 365.977 53.9963C366.443 53.9329 366.914 53.9164 367.384 53.9471C368.249 53.9471 369.445 54.0245 370.753 54.1722C372.062 54.32 373.244 54.531 374.088 54.7139C374.558 54.7931 375.019 54.9156 375.467 55.0797Z" fill="#FF725E"/>
<path d="M375.479 43.9291C375.479 43.9994 373.017 44.6326 369.935 45.4065C366.854 46.1803 364.349 46.708 364.307 46.6446C364.265 46.5813 366.776 45.9411 369.851 45.1743C372.925 44.4075 375.465 43.8658 375.479 43.9291Z" fill="#FF725E"/>
<path d="M362.535 30.9424C362.584 30.9424 361.402 32.87 359.883 35.1634C358.363 37.4569 357.069 39.3001 357.026 39.2578C356.984 39.2156 358.159 37.3302 359.679 35.0368C360.561 33.6245 361.514 32.2579 362.535 30.9424Z" fill="#FF725E"/>
<path d="M349.668 28.2268C349.705 28.7514 349.705 29.278 349.668 29.8027C349.668 30.7735 349.668 32.1102 349.668 33.5875C349.668 35.0649 349.668 36.4016 349.711 37.3865C349.748 37.9088 349.748 38.433 349.711 38.9553C349.611 38.4405 349.556 37.9179 349.549 37.3935C349.493 36.4227 349.443 35.079 349.443 33.5946C349.443 32.1102 349.486 30.7805 349.542 29.7956C349.536 29.2699 349.579 28.7448 349.668 28.2268Z" fill="#FF725E"/>
<path d="M339.934 40.3483C339.878 40.3834 338.668 38.5121 337.24 36.1694C335.812 33.8268 334.686 31.8921 334.742 31.8569C334.799 31.8218 336.009 33.7001 337.444 36.078C338.879 38.4558 340.026 40.3201 339.934 40.3483Z" fill="#FF725E"/>
<path d="M334.113 45.2939C333.701 45.2771 333.293 45.2134 332.896 45.1039C332.15 44.9421 331.13 44.6959 330.011 44.4004C328.893 44.105 327.901 43.6969 327.197 43.4507C326.804 43.3257 326.424 43.1607 326.064 42.9583C326.471 43.0322 326.869 43.1452 327.253 43.2959C327.957 43.5211 328.977 43.8447 330.067 44.1683C331.158 44.4919 332.178 44.7733 332.924 44.9703C333.329 45.0403 333.727 45.1487 334.113 45.2939Z" fill="#FF725E"/>
<path d="M331.582 54.1016C330.375 54.3429 329.152 54.5004 327.923 54.5729C326.703 54.7299 325.474 54.8098 324.244 54.8121C325.451 54.5696 326.673 54.4098 327.902 54.3337C329.123 54.1808 330.352 54.1033 331.582 54.1016Z" fill="#FF725E"/>
<path d="M323.76 258.471L334.017 331.544L336.69 331.629C334.988 306.809 333.173 281.497 323.76 258.471Z" fill="#455A64"/>
<path d="M352.257 255.045C345.089 262.875 342.204 273.702 340.389 284.177C337.814 299.028 337.575 316.573 338.356 331.629L342.099 331.713C340.616 305.745 344.062 279.731 352.257 255.045Z" fill="#455A64"/>
<path d="M325.644 301.701C324.821 298.078 323.878 294.399 321.81 291.311C318.996 287.146 314.472 284.515 309.893 282.46C305.313 280.406 300.508 278.774 296.371 275.932C300.986 283.495 311.454 285.507 316.773 292.584C319.425 296.101 320.53 300.519 321.564 304.804C323.836 314.146 325.229 322.23 327.494 331.537H330.533C329.534 321.499 327.901 311.534 325.644 301.701Z" fill="#455A64"/>
<path d="M344.836 331.629C344.836 331.629 347.404 302.609 349.31 297.276C351.217 291.944 369.227 277.226 369.058 277.923C368.889 278.619 355.543 294.723 353.637 298.05C351.73 301.378 348.466 331.629 348.466 331.629H344.836Z" fill="#455A64"/>
<path d="M259.695 301.279C260.406 301.564 261.053 301.989 261.596 302.529C262.139 303.07 262.567 303.714 262.854 304.424C263.428 305.849 263.669 307.387 263.558 308.92C263.41 311.874 261.939 314.949 260.293 317.411C257.683 315.413 256.874 311.691 256.579 309.771C256.114 306.746 257.113 300.991 259.709 301.279" fill="#FF725E"/>
<path d="M263.469 322.061C263.247 321.233 263.247 320.361 263.471 319.533C263.695 318.705 264.133 317.951 264.742 317.348C265.359 316.755 266.089 316.292 266.887 315.985C267.686 315.678 268.537 315.534 269.393 315.561C269.781 315.535 270.17 315.593 270.534 315.73C270.898 315.867 271.228 316.081 271.503 316.356C271.719 316.66 271.848 317.016 271.878 317.388C271.908 317.759 271.836 318.132 271.672 318.466C271.341 319.13 270.838 319.694 270.216 320.098C268.161 321.583 265.903 322.638 263.434 322.068" fill="#FF725E"/>
<path d="M260.887 331.263C260.887 331.061 260.904 330.858 260.936 330.658C260.985 330.229 261.049 329.673 261.126 329.012C261.287 327.179 261.74 325.383 262.47 323.694C263.235 322.002 264.437 320.546 265.952 319.473C266.413 319.16 266.909 318.903 267.429 318.706C267.569 318.649 267.712 318.602 267.858 318.565L268.013 318.53C267.321 318.821 266.659 319.179 266.036 319.599C264.58 320.687 263.421 322.124 262.667 323.778C261.939 325.448 261.465 327.216 261.26 329.026C261.154 329.73 261.07 330.278 260.999 330.665C260.983 330.868 260.945 331.068 260.887 331.263Z" fill="#263238"/>
<path d="M259.316 305.726C259.344 305.81 259.36 305.897 259.366 305.986L259.457 306.739C259.542 307.4 259.64 308.343 259.753 309.517C259.985 311.867 260.252 315.11 260.456 318.698C260.66 322.286 260.801 325.543 260.857 327.9C260.857 329.082 260.899 330.011 260.899 330.714V331.474C260.899 331.65 260.899 331.741 260.899 331.741C260.892 331.652 260.892 331.563 260.899 331.474L260.864 330.714C260.864 330.011 260.801 329.089 260.752 327.9C260.653 325.543 260.512 322.272 260.294 318.705C260.076 315.139 259.83 311.874 259.64 309.525C259.542 308.371 259.471 307.414 259.415 306.746C259.415 306.436 259.373 306.183 259.359 305.986C259.339 305.9 259.324 305.813 259.316 305.726Z" fill="#263238"/>
<path d="M259.31 324.13C258.897 322.371 258.071 320.736 256.9 319.361C255.729 317.986 254.247 316.91 252.577 316.222C251.726 315.878 250.628 315.688 249.988 316.349C249.348 317.01 249.573 318.101 249.988 318.931C250.829 320.656 252.161 322.093 253.818 323.062C255.474 324.031 257.38 324.488 259.295 324.376" fill="#FF725E"/>
<path d="M253.154 318.973C253.341 319.02 253.523 319.086 253.696 319.17C253.865 319.24 254.076 319.325 254.308 319.444C254.54 319.564 254.815 319.69 255.096 319.873C255.408 320.052 255.709 320.249 255.997 320.464C256.334 320.704 256.658 320.963 256.968 321.238C257.676 321.868 258.311 322.576 258.86 323.349C259.399 324.136 259.843 324.983 260.183 325.874C260.326 326.261 260.448 326.656 260.548 327.056C260.639 327.406 260.712 327.761 260.766 328.119C260.817 328.412 260.85 328.708 260.865 329.005C260.883 329.239 260.883 329.474 260.865 329.708C260.883 329.898 260.883 330.089 260.865 330.278C260.816 330.278 260.865 329.462 260.619 328.168C260.558 327.817 260.478 327.469 260.38 327.127C260.272 326.733 260.143 326.345 259.993 325.966C259.65 325.094 259.211 324.264 258.684 323.489C258.145 322.723 257.528 322.016 256.841 321.379C256.539 321.102 256.222 320.841 255.891 320.598C255.596 320.359 255.286 320.176 255.012 319.993C253.9 319.311 253.14 319.015 253.154 318.973Z" fill="#263238"/>
<path d="M136.057 292.985L116.268 309.215L136.339 333.929C138.583 331.868 132.941 315.23 132.941 315.23L146.047 305.381L136.057 292.985Z" fill="#455A64"/>
<g opacity="0.6">
<path d="M127.808 306.724C127.543 306.546 127.222 306.471 126.906 306.513C126.589 306.556 126.299 306.714 126.091 306.957C125.902 307.215 125.819 307.537 125.86 307.855C125.9 308.173 126.061 308.463 126.31 308.666C126.594 308.849 126.935 308.923 127.269 308.875C127.604 308.827 127.91 308.661 128.132 308.406C128.3 308.115 128.35 307.77 128.27 307.444C128.19 307.117 127.986 306.834 127.703 306.654" fill="white"/>
</g>
<g opacity="0.6">
<path d="M116.348 309.144L118.339 307.498L136.714 332.008C136.714 332.008 137.122 333.5 136.243 333.999L116.348 309.144Z" fill="white"/>
</g>
<path d="M133.392 315.532C133.273 315.631 132.689 315.068 131.852 314.794C131.014 314.519 130.22 314.611 130.177 314.456C130.135 314.301 130.979 313.921 132.028 314.28C133.076 314.639 133.526 315.469 133.392 315.532Z" fill="#263238"/>
<path d="M134.428 319C134.336 319.12 133.724 318.768 132.859 318.768C131.994 318.768 131.382 319.092 131.29 318.972C131.199 318.853 131.818 318.212 132.866 318.227C133.914 318.241 134.54 318.902 134.428 319Z" fill="#263238"/>
<path d="M132.493 322.989C132.373 322.905 132.845 322.243 133.759 322.018C134.674 321.793 135.391 322.145 135.328 322.272C135.265 322.398 134.625 322.342 133.921 322.539C133.218 322.736 132.627 323.102 132.493 322.989Z" fill="#263238"/>
<path d="M136.129 312.95C135.982 312.992 135.7 312.303 135.095 311.656C134.49 311.009 133.85 310.657 133.899 310.509C133.948 310.361 134.8 310.509 135.496 311.29C136.193 312.071 136.277 312.936 136.129 312.95Z" fill="#263238"/>
<path d="M138.584 310.01C138.534 310.052 138.077 309.637 137.585 308.764C137.303 308.253 137.083 307.71 136.93 307.146C136.841 306.814 136.775 306.475 136.733 306.133C136.701 305.931 136.701 305.724 136.733 305.521C136.759 305.374 136.831 305.239 136.938 305.135C137.046 305.031 137.183 304.965 137.331 304.944C137.464 304.935 137.597 304.958 137.72 305.01C137.842 305.063 137.95 305.144 138.035 305.247C138.164 305.405 138.27 305.58 138.352 305.767C138.501 306.084 138.621 306.414 138.71 306.752C138.862 307.321 138.922 307.91 138.886 308.497C138.914 309.044 138.769 309.585 138.471 310.045C138.394 310.045 138.541 309.44 138.471 308.497C138.449 307.951 138.357 307.409 138.197 306.886C138.1 306.582 137.98 306.285 137.838 306C137.697 305.683 137.514 305.458 137.345 305.486C137.177 305.514 137.261 305.486 137.226 305.627C137.206 305.774 137.206 305.923 137.226 306.07C137.261 306.391 137.313 306.711 137.381 307.027C137.503 307.564 137.675 308.09 137.894 308.596C138.16 309.049 138.39 309.521 138.584 310.01Z" fill="#263238"/>
<path d="M138.291 309.968C138.235 309.968 138.474 309.349 139.22 308.666C139.661 308.275 140.165 307.961 140.711 307.738C141.036 307.607 141.373 307.508 141.717 307.442C141.935 307.377 142.165 307.369 142.387 307.418C142.609 307.467 142.814 307.572 142.983 307.724C143.071 307.836 143.125 307.971 143.138 308.113C143.152 308.255 143.125 308.398 143.061 308.526C142.966 308.705 142.848 308.87 142.709 309.018C142.471 309.294 142.19 309.531 141.879 309.721C141.36 310.031 140.773 310.207 140.169 310.235C139.135 310.27 138.58 309.883 138.615 309.841C139.121 309.868 139.628 309.868 140.134 309.841C140.669 309.773 141.182 309.59 141.64 309.306C141.905 309.143 142.142 308.939 142.343 308.701C142.575 308.448 142.709 308.181 142.604 308.103C142.492 308.033 142.366 307.987 142.235 307.969C142.104 307.95 141.971 307.96 141.844 307.998C141.531 308.053 141.223 308.133 140.922 308.237C140.42 308.426 139.946 308.684 139.515 309.004C138.706 309.524 138.361 310.01 138.291 309.968Z" fill="#263238"/>
<path d="M127.094 306.239L127.333 331.818L159.174 331.685C158.977 328.646 142.472 322.602 142.472 322.602L142.993 306.204L127.094 306.239Z" fill="#455A64"/>
<g opacity="0.6">
<path d="M132.624 321.266C132.318 321.361 132.057 321.566 131.892 321.841C131.727 322.116 131.67 322.443 131.731 322.758C131.815 323.066 132.015 323.331 132.288 323.497C132.562 323.663 132.888 323.718 133.201 323.651C133.52 323.543 133.789 323.325 133.961 323.036C134.132 322.747 134.195 322.406 134.137 322.075C134.016 321.761 133.779 321.506 133.475 321.363C133.171 321.22 132.823 321.201 132.505 321.308" fill="white"/>
</g>
<g opacity="0.6">
<path d="M127.33 331.734V329.145L157.954 330.186C157.954 330.186 159.361 330.806 159.206 331.805L127.33 331.734Z" fill="white"/>
</g>
<path d="M142.994 322.455C142.994 322.61 142.213 322.687 141.447 323.158C140.68 323.63 140.279 324.319 140.138 324.256C139.997 324.192 140.222 323.299 141.158 322.701C142.094 322.103 143.044 322.314 142.994 322.455Z" fill="#263238"/>
<path d="M146.336 323.82C146.336 323.975 145.703 324.242 145.175 324.903C144.648 325.564 144.472 326.254 144.345 326.254C144.219 326.254 144.092 325.367 144.76 324.558C145.429 323.749 146.336 323.672 146.336 323.82Z" fill="#263238"/>
<path d="M148.25 327.816C148.11 327.816 147.891 327.07 148.25 326.219C148.609 325.368 149.376 325.023 149.439 325.149C149.502 325.276 149.059 325.74 148.736 326.444C148.412 327.147 148.405 327.795 148.25 327.816Z" fill="#263238"/>
<path d="M142.7 318.705C142.63 318.846 141.92 318.635 141.04 318.705C140.161 318.775 139.478 319.05 139.394 318.916C139.31 318.782 139.971 318.213 141.005 318.163C142.039 318.114 142.771 318.578 142.7 318.705Z" fill="#263238"/>
<path d="M141.918 314.934C141.398 315.077 140.849 315.077 140.328 314.934C139.411 314.772 138.533 314.438 137.739 313.949C137.56 313.849 137.397 313.724 137.254 313.576C137.155 313.464 137.095 313.322 137.083 313.173C137.07 313.024 137.105 312.874 137.184 312.746C137.263 312.634 137.368 312.542 137.491 312.48C137.613 312.417 137.749 312.385 137.887 312.388C138.089 312.387 138.291 312.415 138.485 312.472C139.406 312.684 140.256 313.13 140.954 313.766C141.693 314.47 141.953 315.026 141.897 315.054C141.841 315.082 141.468 314.625 140.708 314.062C140.277 313.736 139.803 313.468 139.301 313.267C139.002 313.148 138.694 313.054 138.379 312.986C138.042 312.901 137.76 312.901 137.676 313.049C137.592 313.197 137.676 313.126 137.718 313.225C137.82 313.334 137.939 313.427 138.07 313.499C138.343 313.673 138.625 313.833 138.914 313.977C139.411 314.22 139.929 314.416 140.462 314.561C140.955 314.654 141.441 314.778 141.918 314.934Z" fill="#263238"/>
<path d="M141.723 315.152C141.667 315.152 141.357 314.625 141.294 313.612C141.264 313.022 141.335 312.432 141.505 311.867C141.606 311.531 141.741 311.206 141.906 310.896C141.99 310.685 142.128 310.5 142.306 310.358C142.483 310.216 142.694 310.123 142.919 310.087C143.067 310.083 143.213 310.123 143.338 310.201C143.463 310.28 143.562 310.395 143.622 310.53C143.703 310.717 143.76 310.913 143.791 311.114C143.86 311.592 143.834 312.079 143.713 312.546C143.592 313.014 143.38 313.452 143.088 313.837C142.469 314.667 141.821 314.857 141.807 314.8C141.793 314.744 142.293 314.421 142.764 313.626C143.041 313.17 143.211 312.658 143.263 312.127C143.309 311.822 143.309 311.511 143.263 311.206C143.207 310.868 143.081 310.594 142.954 310.629C142.827 310.664 142.525 310.882 142.398 311.156C142.242 311.433 142.111 311.722 142.004 312.022C141.829 312.535 141.727 313.07 141.702 313.612C141.638 314.547 141.807 315.131 141.723 315.152Z" fill="#263238"/>
<path d="M129.824 157.989C129.824 157.989 125.357 162.766 123.169 167.345C120.981 171.925 119.574 182.823 119.574 182.823C119.574 182.823 113.411 196.548 114.347 203.569C115.282 210.59 121.558 258.654 121.558 258.654C121.558 258.654 121.248 305.339 125.694 313.661L126.686 318.156L144.64 314.934L144.527 312.24L148.748 220.699L159.554 158.376L129.824 157.989Z" fill="#263238"/>
<path d="M169.44 171.602C169.44 171.602 180.168 230.696 181.118 240.946C182.068 251.197 145.527 305.282 145.527 305.282L128.826 287.884L152.802 243.317L145.007 198.398L155.848 158.713L167.231 159.114L169.44 171.602Z" fill="#263238"/>
<path d="M122.908 299.119C122.926 299.558 122.969 299.994 123.035 300.428C123.147 301.286 123.358 302.538 123.654 304.171C124.252 307.421 125.223 312.134 126.524 318.023V318.149H126.651L144.611 314.998H144.745V314.857C145.245 302.538 145.843 287.814 146.483 272.02C147.144 255.031 147.756 239.272 148.263 226.348C149.606 215.965 150.718 207.354 151.499 201.367C151.872 198.384 152.167 196.041 152.371 194.423C152.463 193.635 152.54 193.016 152.589 192.601C152.638 192.186 152.645 191.975 152.645 191.975C152.645 191.975 152.603 192.179 152.54 192.594C152.477 193.009 152.385 193.628 152.273 194.409C152.048 196.02 151.724 198.363 151.309 201.339C150.521 207.297 149.374 215.901 147.967 226.292C147.447 239.216 146.806 254.974 146.117 271.964C145.498 287.758 144.921 302.482 144.443 314.801L144.583 314.639L126.644 317.868L126.792 317.966C125.455 312.085 124.449 307.379 123.809 304.142C123.492 302.517 123.26 301.265 123.105 300.414C123.028 299.992 122.986 299.668 122.957 299.45C122.947 299.339 122.93 299.229 122.908 299.119Z" fill="#455A64"/>
<path d="M102.064 133.535C102.064 133.535 113.18 109.573 115.804 108.3C118.428 107.027 125.97 106.597 126.99 108.033L107.066 136.722L102.064 133.535Z" fill="#455A64"/>
<path d="M102.642 130.299C102.151 130.027 101.575 129.951 101.031 130.087C97.5769 130.946 84.956 134.309 83.5489 137.918C81.9168 142.075 91.8996 196.105 93.187 197.568C94.4744 199.031 114.327 196.576 114.939 194.269C115.552 191.961 108.481 133.725 108.481 133.725L102.642 130.299Z" fill="#455A64"/>
<path d="M86.9759 167.099C86.9759 167.099 85.8503 167.169 84.7317 169.653C83.6131 172.136 85.5829 192.299 87.0673 194.36C88.5517 196.421 92.8853 196.858 92.8853 196.858L86.9759 167.099Z" fill="#455A64"/>
<path d="M109.101 195.373C109.061 195.335 109.028 195.289 109.003 195.24L108.735 194.825C108.503 194.459 108.194 193.903 107.828 193.164C106.821 191.071 106.059 188.868 105.555 186.601C104.825 183.242 104.298 179.843 103.98 176.421C103.572 172.566 103.121 168.331 102.643 163.884C101.686 154.992 100.891 146.93 100.757 141.056C100.687 138.122 100.757 135.751 100.835 134.112C100.877 133.296 100.926 132.656 100.969 132.227C100.969 132.03 101.004 131.875 101.018 131.741C101.01 131.685 101.01 131.628 101.018 131.572C101.026 131.628 101.026 131.685 101.018 131.741C101.018 131.875 101.018 132.037 101.018 132.234C101.018 132.691 101.018 133.324 100.954 134.119C100.912 135.751 100.891 138.122 100.997 141.049C101.194 146.902 102.031 154.957 102.988 163.849C103.452 168.288 103.895 172.523 104.296 176.379C104.596 179.793 105.094 183.188 105.788 186.544C106.265 188.803 106.984 191.004 107.933 193.108C108.278 193.847 108.566 194.41 108.777 194.789L109.01 195.219C109.08 195.338 109.108 195.338 109.101 195.373Z" fill="#263238"/>
<path d="M102.767 163.328C101.99 163.519 101.203 163.667 100.41 163.771C98.9608 164.018 96.9558 164.405 94.782 164.946C92.6082 165.488 90.6454 166.079 89.2454 166.536C88.4979 166.816 87.7344 167.051 86.959 167.24C87.1328 167.113 87.3249 167.013 87.5288 166.944C87.9087 166.775 88.4645 166.55 89.161 166.29C92.7959 164.934 96.5716 163.99 100.417 163.476C101.121 163.384 101.747 163.321 102.162 163.3C102.364 163.28 102.568 163.29 102.767 163.328Z" fill="#263238"/>
<path d="M86.7151 164.869C86.7599 164.974 86.7884 165.086 86.7995 165.2C86.8488 165.46 86.9051 165.776 86.9754 166.156L87.5593 169.674C88.0588 172.65 88.7834 176.758 89.6699 181.275C90.5563 185.791 91.499 189.865 92.1884 192.805C92.5261 194.212 92.8005 195.408 93.0115 196.288L93.2226 197.237C93.2547 197.347 93.2712 197.461 93.2718 197.575C93.2149 197.477 93.1746 197.37 93.1522 197.258L92.8708 196.323C92.6387 195.514 92.315 194.332 91.9351 192.869C91.1824 189.942 90.2186 185.876 89.3111 181.352C88.4035 176.829 87.7211 172.706 87.285 169.709C87.0669 168.218 86.9051 167.001 86.8136 166.191C86.7714 165.805 86.7362 165.488 86.7081 165.221C86.6969 165.104 86.6993 164.985 86.7151 164.869Z" fill="#263238"/>
<path d="M100.836 140.542C100.806 140.039 100.844 139.535 100.949 139.043C101.305 136.653 101.926 134.31 102.799 132.057C102.952 131.578 103.167 131.122 103.439 130.699C103.538 130.742 102.736 132.88 102.032 135.624C101.329 138.368 100.963 140.556 100.836 140.542Z" fill="#263238"/>
<path d="M170.579 89.2419C170.466 87.2088 170.213 77.2823 170.093 75.8049C169.967 73.7459 169.08 71.8075 167.603 70.3668C166.875 69.6534 165.954 69.1697 164.953 68.9758C163.952 68.7819 162.917 68.8864 161.975 69.2764C161.38 69.4267 160.836 69.7317 160.397 70.1605C159.959 70.5892 159.641 71.1265 159.478 71.7176C155.313 86.4912 155.96 102.299 154.131 117.607C159.569 118.494 166.885 118.135 172.38 117.847C172.366 105.62 171.332 102.475 170.579 89.2419Z" fill="#263238"/>
<path d="M168.293 110.115C168.261 109.986 168.247 109.854 168.251 109.721C168.251 109.426 168.216 109.018 168.195 108.589C168.195 107.554 168.117 106.133 168.068 104.41C167.991 100.836 167.892 95.9677 167.779 90.6281C167.737 87.9336 167.695 85.3729 167.66 83.0372C167.66 81.8694 167.66 80.7649 167.625 79.7237C167.637 78.7819 167.571 77.8406 167.428 76.9097C167.344 76.2305 167.112 75.5781 166.747 74.9992C166.382 74.4202 165.894 73.9291 165.317 73.561C164.882 73.3222 164.404 73.1739 163.91 73.1248C163.91 73.1248 163.91 73.1248 164.009 73.1248C164.107 73.114 164.206 73.114 164.304 73.1248C164.691 73.1605 165.066 73.2729 165.409 73.4555C165.95 73.7431 166.417 74.1525 166.773 74.6514C167.247 75.3138 167.566 76.0732 167.709 76.8745C167.874 77.8294 167.957 78.7968 167.955 79.7659C167.955 80.8071 167.998 81.9187 168.026 83.0794C168.068 85.4151 168.117 88.004 168.173 90.6703C168.244 96.031 168.307 100.885 168.356 104.452C168.356 106.183 168.356 107.597 168.356 108.631C168.356 109.095 168.356 109.468 168.356 109.771C168.345 109.887 168.324 110.002 168.293 110.115Z" fill="#455A64"/>
<path d="M163.348 104.501C163.301 104.208 163.28 103.911 163.285 103.615C163.285 103.038 163.25 102.208 163.25 101.181C163.25 99.1263 163.292 96.256 163.37 93.1535C163.447 90.0511 163.531 87.2581 163.595 85.1335C163.595 84.1627 163.651 83.3466 163.672 82.7064C163.666 82.4067 163.692 82.1071 163.749 81.813C163.797 82.1083 163.818 82.4073 163.813 82.7064C163.813 83.2763 163.813 84.1135 163.813 85.1406C163.813 87.1948 163.771 90.0651 163.693 93.1606C163.616 96.256 163.524 99.056 163.468 101.181C163.433 102.151 163.412 102.967 163.391 103.615C163.409 103.911 163.394 104.208 163.348 104.501Z" fill="#455A64"/>
<path d="M127.527 108.3C126.823 108.3 113.555 109.243 110.474 123.453C107.392 137.664 106.506 157.574 106.506 157.574L120.893 156.166L127.527 108.3Z" fill="#FF725E"/>
<path d="M134.038 105.155L136.374 100.843L156.776 100.287L158.183 103.959L170.206 108.3L169.199 161.57L178.106 210.752C178.106 210.752 178.014 217.85 154.299 220.102L152.421 194.395L140.567 194.114L140.89 219.222C140.89 219.222 119.968 218.884 113.334 214.15C113.334 214.15 111.322 190.231 117.034 173.002C122.036 157.918 123.985 154.007 123.985 154.007L124.393 108.807L134.038 105.155Z" fill="#FF725E"/>
<g opacity="0.3">
<path d="M127.735 108.912C123.636 126.458 119.532 144.01 115.424 161.57L119.596 165.995C121.733 164.998 123.544 163.415 124.818 161.43C126.092 159.445 126.777 157.139 126.793 154.781C126.793 152.347 126.019 149.976 125.92 147.542C125.695 142.054 128.734 137.024 130.141 131.713C132.076 124.192 130.662 116.116 127.735 108.912Z" fill="black"/>
</g>
<path d="M167.605 107.618C172.53 108.525 176.322 113.731 177.454 119.317C178.109 122.588 180.015 138.361 180.015 138.361L181.063 144.144C181.063 144.144 181.943 164.018 177.729 166.241C172.804 168.83 169.99 165.988 168.358 163.905C166.726 161.823 164.988 148.273 164.988 148.273L166.824 115.842L167.605 107.618Z" fill="#FF725E"/>
<path d="M169.934 115.595C169.932 115.787 169.914 115.977 169.878 116.165C169.821 116.564 169.744 117.106 169.645 117.79C169.42 119.197 169.111 121.259 168.724 123.749C168.337 126.24 167.837 129.272 167.317 132.592C167.042 134.252 166.761 135.997 166.466 137.805C166.17 139.613 165.804 141.478 165.649 143.433C165.555 144.538 165.555 145.649 165.649 146.754C167.176 153.585 168.604 159.614 169.681 163.933C170.222 166.044 170.658 167.789 170.975 169.02C171.123 169.59 171.242 170.04 171.334 170.385C171.388 170.542 171.424 170.705 171.439 170.87C171.367 170.722 171.31 170.566 171.27 170.406L170.848 169.055C170.497 167.873 170.004 166.15 169.441 163.997C168.302 159.691 166.831 153.662 165.298 146.838C165.203 145.715 165.203 144.585 165.298 143.461C165.452 141.506 165.818 139.634 166.121 137.833C166.423 136.032 166.719 134.316 166.993 132.62C167.556 129.307 168.062 126.289 168.485 123.791C168.907 121.294 169.273 119.289 169.526 117.847C169.652 117.178 169.751 116.637 169.828 116.236C169.84 116.019 169.875 115.804 169.934 115.595Z" fill="#263238"/>
<path d="M117.717 111.62L121.445 161.569C121.445 161.569 128.424 129.75 128.706 121.61C128.919 116.942 128.445 112.267 127.299 107.737C127.299 107.737 120.531 106.647 117.717 111.62Z" fill="#455A64"/>
<path d="M115.564 108.455C116.025 108.597 116.45 108.837 116.809 109.158C117.229 109.494 117.544 109.943 117.717 110.453C117.915 111.054 118.04 111.678 118.09 112.31C118.209 113.632 118.202 114.828 118.202 115.694C118.233 116.163 118.214 116.635 118.146 117.101C118.006 116.645 117.938 116.17 117.942 115.694C117.872 114.835 117.844 113.639 117.724 112.338C117.604 111.036 117.309 109.869 116.676 109.327C116.043 108.785 115.529 108.511 115.564 108.455Z" fill="#263238"/>
<path d="M141.442 110.263C141.442 110.263 141.28 110.129 141.02 109.826C140.759 109.524 140.394 109.123 139.936 108.525H140.147C139.641 109.995 138.867 112.127 137.988 114.519L137.861 114.857L137.671 114.568C137.566 114.406 137.439 114.245 137.34 114.076C136.751 113.018 136.263 111.906 135.884 110.755C135.511 109.707 135.181 108.764 134.941 107.941C134.702 107.118 134.463 106.534 134.301 106.077C134.204 105.85 134.129 105.614 134.076 105.373C134.229 105.566 134.35 105.783 134.435 106.013C134.639 106.436 134.892 107.069 135.188 107.85C135.483 108.631 135.828 109.587 136.201 110.6C136.592 111.722 137.077 112.809 137.65 113.851C137.748 114.012 137.861 114.16 137.96 114.308L137.643 114.357C138.536 111.972 139.345 109.855 139.922 108.405L140 108.201L140.133 108.377C140.612 108.975 141.05 109.605 141.442 110.263Z" fill="#263238"/>
<path d="M157.621 106.829C157.567 107.061 157.484 107.286 157.375 107.498C157.192 107.92 156.911 108.518 156.559 109.256C156.207 109.995 155.771 110.867 155.257 111.831C154.718 112.888 154.102 113.904 153.414 114.87L153.182 115.187L153.091 114.8L153.055 114.638C152.479 112.183 151.979 109.953 151.648 108.307L151.874 108.363C151.383 108.831 150.843 109.244 150.263 109.594C149.883 109.868 149.707 110.065 149.686 110.044C149.665 110.023 149.805 109.805 150.171 109.482C150.708 109.093 151.212 108.66 151.677 108.187L151.838 107.997L151.909 108.243C152.317 109.854 152.858 112.078 153.435 114.533V114.695L153.112 114.624C153.786 113.672 154.399 112.678 154.948 111.648L156.313 109.123L157.234 107.413C157.338 107.203 157.468 107.007 157.621 106.829Z" fill="#263238"/>
<path d="M141.793 110.066C141.793 110.066 139.817 135.744 139.303 139.05C138.789 142.357 140.548 194.114 140.548 194.114L152.114 194.859C152.114 194.859 152.233 152.121 152.114 151.826C151.994 151.53 152.17 121.652 152.17 121.652L149.546 109.749L145.072 115.046L141.793 110.066Z" fill="white"/>
<path d="M154.701 134.478C154.701 134.534 154.293 134.625 154.089 135.181C154.03 135.33 154.003 135.491 154.012 135.651C154.02 135.811 154.063 135.968 154.138 136.11C154.245 136.266 154.398 136.386 154.575 136.454C154.752 136.522 154.946 136.534 155.13 136.49C155.318 136.468 155.495 136.389 155.636 136.263C155.777 136.137 155.876 135.971 155.918 135.786C155.938 135.627 155.924 135.465 155.875 135.312C155.827 135.159 155.745 135.018 155.637 134.9C155.413 134.674 155.126 134.522 154.814 134.464C154.814 134.464 154.905 134.393 155.095 134.393C155.36 134.422 155.608 134.538 155.798 134.724C155.952 134.864 156.071 135.038 156.145 135.232C156.22 135.427 156.248 135.636 156.228 135.843C156.171 136.097 156.04 136.329 155.852 136.51C155.664 136.69 155.427 136.812 155.171 136.859C154.915 136.906 154.65 136.877 154.41 136.775C154.17 136.673 153.966 136.503 153.822 136.286C153.727 136.099 153.678 135.893 153.678 135.684C153.678 135.475 153.727 135.269 153.822 135.083C153.937 134.835 154.136 134.635 154.384 134.52C154.588 134.443 154.694 134.457 154.701 134.478Z" fill="#263238"/>
<path d="M154.703 156.891C154.703 156.948 154.295 157.046 154.091 157.595C154.031 157.744 154.005 157.904 154.014 158.064C154.022 158.225 154.065 158.381 154.14 158.523C154.254 158.673 154.406 158.788 154.582 158.856C154.757 158.923 154.947 158.941 155.132 158.907C155.317 158.873 155.488 158.788 155.627 158.661C155.766 158.535 155.868 158.373 155.92 158.193C155.941 158.033 155.926 157.871 155.878 157.718C155.829 157.565 155.747 157.424 155.638 157.306C155.245 156.863 154.808 156.926 154.815 156.863C154.822 156.8 154.907 156.793 155.097 156.8C155.361 156.825 155.609 156.939 155.8 157.123C155.953 157.265 156.071 157.439 156.145 157.633C156.219 157.827 156.248 158.035 156.229 158.242C156.172 158.496 156.042 158.728 155.854 158.909C155.666 159.09 155.429 159.211 155.173 159.259C154.917 159.306 154.652 159.277 154.412 159.175C154.172 159.073 153.967 158.903 153.823 158.685C153.729 158.5 153.68 158.295 153.68 158.087C153.68 157.879 153.729 157.674 153.823 157.489C153.939 157.241 154.138 157.042 154.386 156.926C154.59 156.856 154.696 156.877 154.703 156.891Z" fill="#263238"/>
<path d="M155.706 184.005C155.706 184.061 155.298 184.159 155.094 184.708C155.035 184.857 155.008 185.017 155.017 185.178C155.025 185.338 155.069 185.495 155.143 185.637C155.257 185.786 155.41 185.901 155.585 185.969C155.76 186.037 155.951 186.054 156.135 186.02C156.32 185.986 156.491 185.901 156.63 185.775C156.77 185.649 156.871 185.486 156.923 185.306C156.944 185.147 156.93 184.985 156.881 184.832C156.832 184.678 156.751 184.538 156.642 184.42C156.248 183.976 155.812 184.04 155.819 183.976C155.826 183.913 155.91 183.906 156.1 183.913C156.365 183.936 156.614 184.05 156.804 184.237C156.959 184.376 157.079 184.55 157.154 184.744C157.23 184.938 157.259 185.148 157.24 185.355C157.184 185.611 157.054 185.845 156.865 186.028C156.677 186.21 156.439 186.333 156.181 186.38C155.923 186.427 155.657 186.398 155.416 186.294C155.175 186.191 154.97 186.018 154.827 185.798C154.734 185.613 154.686 185.408 154.686 185.2C154.686 184.993 154.734 184.788 154.827 184.603C154.942 184.354 155.142 184.155 155.39 184.04C155.615 183.969 155.706 183.99 155.706 184.005Z" fill="#263238"/>
<g opacity="0.3">
<path d="M170.721 134.274C170.468 132.226 169.926 130.221 169.792 128.16C169.623 125.698 170.052 123.236 169.567 120.78C167.893 123.594 167.513 126.95 167.506 130.207C167.499 133.465 167.801 136.736 167.337 139.958C167.02 142.167 166.303 144.819 166.035 147.035C165.768 149.251 166.401 150.468 167.049 153.796C169.279 147.5 171.537 140.908 170.721 134.274Z" fill="black"/>
</g>
<path d="M166.817 129.039C168.146 132.836 168.576 136.89 168.074 140.881C167.573 144.873 166.153 148.694 163.926 152.044" fill="#FF725E"/>
<path d="M163.926 152.044C163.862 152.002 164.629 150.89 165.558 148.935C166.093 147.795 166.549 146.62 166.922 145.417C167.365 143.932 167.689 142.415 167.893 140.879C168.073 139.341 168.134 137.791 168.076 136.243C168.016 134.98 167.868 133.722 167.633 132.48C167.218 130.369 166.747 129.089 166.817 129.061C166.97 129.34 167.093 129.635 167.183 129.94C167.288 130.228 167.408 130.58 167.52 130.995C167.633 131.41 167.788 131.889 167.886 132.402C168.16 133.655 168.337 134.928 168.414 136.208C168.601 139.349 168.205 142.498 167.246 145.494C166.85 146.702 166.363 147.878 165.79 149.012C165.558 149.512 165.297 149.934 165.086 150.306C164.903 150.631 164.704 150.945 164.488 151.249C164.329 151.533 164.141 151.8 163.926 152.044Z" fill="#263238"/>
<path d="M131.872 162.977C131.378 162.671 130.924 162.304 130.521 161.886C128.466 159.98 126.662 157.819 125.154 155.456C124.81 154.983 124.528 154.468 124.316 153.922C124.706 154.36 125.057 154.831 125.365 155.329C125.991 156.195 126.87 157.377 127.911 158.629C128.953 159.881 129.959 160.95 130.725 161.724C131.142 162.109 131.526 162.528 131.872 162.977Z" fill="#263238"/>
<path d="M127.243 163.715C126.945 163.311 126.708 162.866 126.539 162.393C125.549 160.178 124.84 157.847 124.428 155.456C124.308 154.966 124.258 154.462 124.281 153.958C124.386 153.958 124.794 156.188 125.617 158.882C126.441 161.577 127.341 163.68 127.243 163.715Z" fill="#263238"/>
<path d="M149.867 150.313C149.867 150.363 149.438 150.088 148.742 149.814C147.832 149.459 146.856 149.311 145.882 149.38C144.909 149.45 143.963 149.735 143.113 150.215C142.466 150.588 142.122 150.919 142.072 150.862C142.3 150.504 142.611 150.207 142.98 149.997C143.835 149.426 144.824 149.089 145.85 149.019C146.874 148.94 147.901 149.135 148.826 149.582C149.228 149.737 149.585 149.988 149.867 150.313Z" fill="#263238"/>
<path d="M110.812 148.646C110.812 148.646 105.641 154.274 106.035 158.2C106.429 162.125 108.258 170.764 113.07 170.504C117.882 170.244 122.293 162.456 122.919 156.279C123.545 150.102 122.919 135.568 122.919 135.568L116.018 137.123L110.812 148.646Z" fill="#FFBE9D"/>
<path d="M100.54 112.626C104.114 117.192 112.971 128.202 112.971 128.202L121.307 126.092C121.605 126.017 121.873 125.854 122.077 125.625C122.28 125.395 122.409 125.109 122.447 124.804C122.472 124.605 122.456 124.403 122.402 124.21C122.348 124.016 122.255 123.836 122.131 123.679L110.445 108.905C110.009 108.351 109.408 107.95 108.729 107.76C108.05 107.57 107.328 107.602 106.667 107.85L101.328 109.855C101.066 109.954 100.831 110.113 100.641 110.319C100.452 110.525 100.313 110.773 100.236 111.042C100.16 111.312 100.147 111.595 100.2 111.87C100.253 112.146 100.369 112.404 100.54 112.626Z" fill="#263238"/>
<path d="M121.559 124.22C121.271 123.986 121.003 123.73 120.757 123.453C120.257 122.933 119.547 122.18 118.695 121.23C116.993 119.324 114.713 116.615 112.364 113.492C111.78 112.711 111.217 111.944 110.682 111.191C110.24 110.455 109.645 109.821 108.938 109.334C108.594 109.174 108.219 109.091 107.84 109.091C107.461 109.091 107.086 109.174 106.743 109.334L104.773 110.038L101.896 110.987C101.549 111.121 101.191 111.223 100.826 111.29C101.155 111.119 101.496 110.973 101.846 110.854L104.66 109.791L106.623 109.088C107 108.947 107.392 108.853 107.791 108.806C108.237 108.77 108.684 108.862 109.078 109.074C109.84 109.575 110.481 110.238 110.957 111.015L112.638 113.309C114.974 116.425 117.211 119.148 118.864 121.09C119.659 122.025 120.327 122.799 120.834 123.39C121.097 123.647 121.34 123.925 121.559 124.22Z" fill="#455A64"/>
<path d="M105.274 111.093C105.399 111.031 105.539 111.008 105.678 111.027C105.816 111.045 105.945 111.104 106.05 111.197C106.154 111.289 106.229 111.41 106.265 111.545C106.3 111.68 106.295 111.822 106.249 111.954C106.204 112.086 106.12 112.201 106.009 112.285C105.898 112.369 105.764 112.418 105.625 112.426C105.485 112.434 105.347 112.401 105.227 112.33C105.107 112.259 105.01 112.154 104.95 112.028C104.87 111.861 104.859 111.669 104.92 111.494C104.98 111.319 105.107 111.175 105.274 111.093Z" fill="white"/>
<path d="M112.42 121.076L108.565 121.716L107.158 122.982C106.959 123.154 106.806 123.372 106.713 123.618C106.619 123.864 106.589 124.129 106.623 124.389C106.733 125.082 107.035 125.731 107.496 126.26C107.992 126.877 108.554 127.438 109.17 127.935C109.17 127.935 107.819 130.13 109.916 131.241C109.916 131.241 109.775 133.514 111.977 133.746C111.977 133.746 112.617 135.905 114.277 136.025L115.987 137.721L115.466 138.755L123.113 138.994C123.152 136.954 123.051 134.914 122.811 132.887C122.681 132.063 122.481 131.251 122.213 130.46C122.6 128.308 120.989 127.407 120.743 127.562C120.743 127.562 124.394 126.605 123.93 124.094L120.412 124.994L113.989 126.331L118.111 123.58C118.316 123.392 118.496 123.18 118.646 122.947C118.998 122.391 119.519 121.385 119.075 120.794C118.885 120.548 113.82 122.665 113.82 122.665L110.682 125.557L109.698 124.15C109.698 124.15 112.927 123.489 112.42 121.076Z" fill="#FFBE9D"/>
<path d="M121.234 127.59C121.234 127.703 119.876 127.892 118.251 128.371C116.626 128.849 115.36 129.405 115.311 129.307C116.155 128.696 117.111 128.259 118.125 128.019C119.122 127.669 120.179 127.523 121.234 127.59Z" fill="#EB996E"/>
<path d="M119.469 134.21C119.928 133.792 120.354 133.338 120.742 132.852L120.876 132.676L120.967 132.88C121.093 133.149 121.317 133.361 121.593 133.471C121.738 133.544 121.9 133.577 122.061 133.567C122.223 133.557 122.38 133.505 122.515 133.415C122.573 133.37 122.616 133.308 122.639 133.238C122.662 133.167 122.662 133.092 122.641 133.021L122.536 132.388C122.483 131.948 122.396 131.513 122.276 131.086C122.218 130.905 122.103 130.748 121.948 130.637C121.794 130.527 121.607 130.47 121.417 130.474C121.02 130.492 120.626 130.565 120.249 130.692L118.188 131.199C117.561 131.382 116.918 131.507 116.268 131.572C116.867 131.309 117.489 131.1 118.125 130.946L120.151 130.369C120.562 130.217 120.994 130.132 121.431 130.115C121.682 130.121 121.925 130.196 122.135 130.334C122.347 130.492 122.509 130.71 122.599 130.96C122.726 131.409 122.818 131.868 122.874 132.332C122.874 132.55 122.937 132.768 122.972 132.979C122.998 133.11 122.986 133.246 122.937 133.37C122.889 133.495 122.806 133.603 122.698 133.682C122.514 133.804 122.301 133.875 122.081 133.888C121.861 133.9 121.641 133.853 121.445 133.753C121.124 133.59 120.873 133.315 120.742 132.979H120.96C120.666 133.348 120.32 133.672 119.933 133.943C119.644 134.133 119.483 134.231 119.469 134.21Z" fill="#EB996E"/>
<path d="M112.708 123.58C112.199 124.374 111.625 125.125 110.991 125.824C110.457 126.601 109.857 127.331 109.197 128.005C109.555 127.13 110.056 126.322 110.682 125.613C111.232 124.821 111.918 124.133 112.708 123.58Z" fill="#EB996E"/>
<path d="M114.3 126.233C114.3 126.338 113.498 126.591 112.893 127.414C112.577 127.937 112.339 128.504 112.189 129.096C112.14 129.096 112.07 128.885 112.084 128.519C112.127 128.042 112.298 127.586 112.579 127.198C112.861 126.811 113.241 126.506 113.681 126.317C114.061 126.19 114.286 126.19 114.3 126.233Z" fill="#EB996E"/>
<path d="M155.569 69.5579C154.978 68.0101 155.21 66.2865 154.978 64.6333C154.471 61.0243 151.566 58.1258 148.203 56.7118C145.073 55.4033 141.253 55.6847 137.482 56.8947C134.862 57.6858 132.522 59.2059 130.735 61.2776C129.596 62.6826 128.81 64.3399 128.443 66.111C128.076 67.882 128.138 69.7153 128.625 71.4573L147.099 68.791C148.822 70.198 150.616 71.6824 152.692 72.4844C153.296 72.7538 153.961 72.8605 154.619 72.794C154.941 72.7498 155.244 72.6153 155.493 72.4062C155.742 72.197 155.927 71.9218 156.026 71.6121C156.237 70.9156 155.829 70.2332 155.569 69.5579Z" fill="#263238"/>
<path d="M144.088 55.7902C148.133 55.0867 151.686 56.6696 155.091 58.956C158.491 61.3055 161.091 64.6393 162.541 68.5096C164.096 72.5407 164.49 78.3587 163.245 82.5165C162.708 84.4686 161.707 86.2621 160.328 87.7442C158.949 89.2263 157.232 90.3532 155.323 91.0289C149.765 92.9987 143.363 92.7525 138.636 89.1928C133.908 85.633 131.249 79.7447 131.031 73.8493C130.823 69.7571 131.909 65.7035 134.133 62.2625C135.254 60.5609 136.713 59.1081 138.42 57.9947C140.126 56.8812 142.044 56.1308 144.053 55.7902" fill="#263238"/>
<path d="M137.664 99.7806L137.811 103.073L145.072 115.912L155.624 102.405L155.983 68.6363C155.969 67.8817 155.672 67.1599 155.15 66.614C154.629 66.0681 153.922 65.7378 153.169 65.6886L137.052 62.2484C131.916 61.9037 128.75 68.3267 128.609 73.5045C128.469 79.2241 128.511 86.2099 129.313 90.438C130.994 98.9434 137.593 99.7876 137.593 99.7876" fill="#FFBE9D"/>
<path d="M130.957 80.5888C130.963 80.8756 131.081 81.1486 131.286 81.3488C131.492 81.5489 131.768 81.6601 132.055 81.6582C132.195 81.6638 132.335 81.6414 132.466 81.5922C132.598 81.543 132.718 81.4681 132.821 81.3718C132.923 81.2754 133.005 81.1597 133.062 81.0313C133.119 80.9029 133.149 80.7644 133.152 80.624C133.141 80.3397 133.021 80.0705 132.816 79.8726C132.612 79.6747 132.339 79.5633 132.055 79.5617C131.915 79.5551 131.775 79.5766 131.643 79.625C131.512 79.6734 131.391 79.7477 131.289 79.8434C131.186 79.9392 131.104 80.0545 131.047 80.1825C130.99 80.3106 130.96 80.4487 130.957 80.5888Z" fill="#263238"/>
<path d="M130.295 76.7966C130.436 76.9373 131.245 76.29 132.406 76.2478C133.567 76.2056 134.474 76.7614 134.594 76.6136C134.713 76.4659 134.509 76.2971 134.115 76.0368C133.593 75.6984 132.978 75.5335 132.357 75.5654C131.743 75.5851 131.152 75.7994 130.668 76.1775C130.338 76.4448 130.225 76.7332 130.295 76.7966Z" fill="#263238"/>
<path d="M141.674 80.3847C141.681 80.6721 141.801 80.9451 142.008 81.1451C142.214 81.3451 142.491 81.456 142.778 81.4541C142.918 81.4597 143.057 81.4375 143.188 81.3886C143.318 81.3398 143.438 81.2654 143.539 81.1697C143.641 81.0741 143.722 80.9591 143.779 80.8315C143.836 80.704 143.866 80.5664 143.869 80.4269C143.863 80.1402 143.745 79.8672 143.54 79.667C143.334 79.4669 143.058 79.3557 142.771 79.3576C142.631 79.351 142.491 79.3725 142.36 79.4209C142.228 79.4693 142.108 79.5436 142.006 79.6393C141.903 79.7351 141.821 79.8504 141.764 79.9784C141.707 80.1065 141.676 80.2446 141.674 80.3847Z" fill="#263238"/>
<path d="M141.51 76.5226C141.651 76.6633 142.46 76.0161 143.621 75.9739C144.782 75.9317 145.731 76.4945 145.816 76.3397C145.9 76.185 145.731 76.0231 145.337 75.7628C144.815 75.4245 144.2 75.2596 143.579 75.2915C142.965 75.3111 142.374 75.5255 141.89 75.9036C141.552 76.199 141.44 76.4453 141.51 76.5226Z" fill="#263238"/>
<path d="M137.949 85.4992C137.321 85.3279 136.673 85.2358 136.022 85.2249C135.719 85.2249 135.431 85.1545 135.374 84.9505C135.335 84.6401 135.394 84.3252 135.543 84.05L136.345 81.7214C137.464 78.4079 138.259 75.6853 138.125 75.6431C137.992 75.6009 136.978 78.2461 135.86 81.5666L135.093 83.9093C134.919 84.2807 134.879 84.7008 134.981 85.0982C135.03 85.202 135.101 85.2937 135.19 85.3667C135.279 85.4396 135.383 85.4921 135.494 85.5203C135.662 85.5589 135.835 85.5754 136.008 85.5696C136.655 85.632 137.308 85.6083 137.949 85.4992Z" fill="#263238"/>
<path d="M137.662 99.7806C141.703 99.5095 145.608 98.2143 149.01 96.0168C149.01 96.0168 146.35 102.046 137.754 101.568L137.662 99.7806Z" fill="#EB996E"/>
<path d="M138.861 88.0388C139.075 87.8032 139.346 87.6255 139.647 87.5222C139.948 87.4189 140.271 87.3933 140.585 87.4478C140.809 87.469 141.026 87.5439 141.216 87.6664C141.406 87.7888 141.563 87.9552 141.675 88.1513C141.837 88.3889 141.933 88.6658 141.951 88.953C141.97 89.2401 141.911 89.527 141.781 89.7835C141.601 90.0053 141.358 90.1671 141.084 90.2475C140.81 90.3279 140.518 90.3231 140.247 90.2337C139.736 90.1171 139.256 89.8915 138.84 89.5724C138.706 89.4427 138.613 89.2763 138.573 89.094C138.544 88.9062 138.559 88.7145 138.615 88.5331C138.671 88.3516 138.767 88.1851 138.896 88.0458" fill="#EB996E"/>
<path d="M141.582 73.7576C141.709 74.0742 142.884 73.8772 144.27 73.9968C145.655 74.1164 146.802 74.4471 146.971 74.1516C147.048 74.0109 146.844 73.7154 146.38 73.4481C145.767 73.0811 145.074 72.8664 144.361 72.822C143.641 72.7621 142.917 72.8755 142.25 73.1526C141.772 73.3426 141.526 73.631 141.582 73.7576Z" fill="#263238"/>
<path d="M130.445 71.6192C130.663 71.8795 131.465 71.5699 132.443 71.5207C133.421 71.4714 134.258 71.6332 134.434 71.3448C134.511 71.2111 134.37 70.9438 134.005 70.7046C133.506 70.4181 132.934 70.2859 132.361 70.3247C131.787 70.3636 131.238 70.5717 130.783 70.9227C130.452 71.2111 130.382 71.5207 130.445 71.6192Z" fill="#263238"/>
<path d="M158.521 67.0742C156.853 62.1496 149.565 55.4592 144.394 55.9165L136.227 61.024C136.521 62.4288 137.19 63.728 138.162 64.7842C139.134 65.8405 140.374 66.6146 141.749 67.0249C143.219 67.44 144.978 67.5314 145.872 68.7696C146.765 70.0078 146.301 71.9143 147.152 73.2228C148.327 75.0379 151.45 74.8901 152.351 76.86C152.738 77.7182 152.562 78.7524 152.97 79.6107C153.512 80.7433 156.438 82.1433 157.634 81.7212C158.83 81.2991 158.788 79.273 159.161 78.2037C159.631 76.9871 159.669 75.6456 159.266 74.4047C158.704 72.0058 159.323 69.4098 158.521 67.0742Z" fill="#263238"/>
<path d="M154.117 82.8189C154.117 82.1787 154.778 80.6521 155.405 80.5255C157.072 80.2018 160.104 80.223 160.329 84.4932C160.589 90.3253 154.701 89.3756 154.659 89.2138C154.617 89.052 154.195 85.0209 154.117 82.8189Z" fill="#FFBE9D"/>
<path d="M156.312 86.9202C156.312 86.9202 156.418 86.9906 156.587 87.0609C156.708 87.1114 156.838 87.1374 156.97 87.1374C157.102 87.1374 157.232 87.1114 157.353 87.0609C157.958 86.8077 158.43 85.8087 158.416 84.7605C158.411 84.2591 158.291 83.7655 158.064 83.3183C158.003 83.1381 157.899 82.9757 157.76 82.8456C157.621 82.7155 157.453 82.6217 157.269 82.5725C157.151 82.5449 157.026 82.5601 156.918 82.6155C156.81 82.6709 156.725 82.7629 156.678 82.8751C156.608 83.0439 156.678 83.1565 156.622 83.1635C156.565 83.1705 156.488 83.072 156.53 82.8328C156.552 82.6849 156.627 82.5499 156.741 82.453C156.897 82.326 157.097 82.2653 157.297 82.2841C157.539 82.3196 157.767 82.4174 157.96 82.5679C158.152 82.7184 158.302 82.9164 158.395 83.1424C158.665 83.6373 158.812 84.1898 158.824 84.7534C158.824 85.9283 158.282 87.0539 157.417 87.3353C157.262 87.3877 157.098 87.4048 156.936 87.3853C156.774 87.3658 156.619 87.3103 156.481 87.2227C156.326 87.0609 156.291 86.9343 156.312 86.9202Z" fill="#EB996E"/>
<path d="M163.812 74.8409C163.988 74.2745 164.064 73.6817 164.037 73.0892C164.053 70.205 163.101 67.3987 161.335 65.1184C161 64.6318 160.583 64.2059 160.104 63.8591C159.992 63.9295 161.947 65.8712 162.975 69.0018C163.553 70.8934 163.835 72.863 163.812 74.8409Z" fill="#FF725E"/>
<path d="M137.931 59.2654C137.389 61.6362 133.78 64.6754 132.19 66.5256C129.165 70.0431 128.595 70.5637 128.617 81.1937C127.051 77.894 126.223 74.2931 126.189 70.6411C126.26 67.5358 127.464 64.5634 129.573 62.2835C130.636 61.1665 131.945 60.3127 133.396 59.7901C134.847 59.2674 136.4 59.0901 137.931 59.2724" fill="#263238"/>
<path d="M161.5 66.9968C161.181 67.1131 160.851 67.1957 160.515 67.243C160.191 67.3133 159.811 67.3907 159.333 67.447C158.854 67.5033 158.341 67.6018 157.75 67.6299C156.375 67.7305 154.995 67.7305 153.62 67.6299C151.933 67.5079 150.258 67.2515 148.611 66.8631C146.97 66.4514 145.365 65.9056 143.813 65.231C142.55 64.6755 141.329 64.0265 140.162 63.2893C139.649 62.9938 139.227 62.6702 138.847 62.4029C138.516 62.1851 138.196 61.9503 137.89 61.6994C137.616 61.4852 137.36 61.25 137.123 60.9958C137.423 61.1573 137.708 61.3457 137.974 61.5587C138.235 61.7556 138.558 61.9878 138.952 62.2622C139.346 62.5365 139.775 62.8179 140.289 63.0993C141.462 63.8019 142.682 64.4225 143.94 64.9566C145.474 65.6235 147.057 66.1715 148.675 66.5958C150.295 66.9788 151.941 67.2421 153.599 67.3837C154.962 67.4858 156.33 67.4975 157.694 67.4189C158.278 67.4189 158.805 67.3274 159.262 67.2922C159.72 67.2571 160.121 67.1938 160.444 67.1445C160.792 67.0669 161.144 67.0175 161.5 66.9968Z" fill="#455A64"/>
<path d="M162.101 71.1826C161.874 71.2665 161.638 71.3209 161.398 71.3444C160.777 71.4611 160.149 71.541 159.519 71.5836C155.325 71.8912 151.125 71.0625 147.363 69.1846C146.794 68.9068 146.242 68.5967 145.709 68.256C145.504 68.1435 145.315 68.0039 145.146 67.8409C145.146 67.7917 146.026 68.3052 147.468 68.9665C151.236 70.6986 155.362 71.5112 159.505 71.3373C161.116 71.274 162.094 71.1193 162.101 71.1826Z" fill="#455A64"/>
<path d="M163.58 71.3237C163.681 71.6079 163.747 71.9032 163.777 72.2031C163.869 72.78 163.96 73.6101 164.017 74.6443C164.08 75.8558 164.08 77.0699 164.017 78.2814C163.961 79.77 163.761 81.2497 163.419 82.6995C162.732 85.3636 161.131 87.7018 158.895 89.3054C158.216 89.7688 157.49 90.158 156.728 90.4662C156.457 90.5971 156.172 90.694 155.877 90.7546C156.13 90.5944 156.396 90.4555 156.672 90.3396C157.398 89.9878 158.093 89.5735 158.747 89.1014C159.707 88.3916 160.544 87.5289 161.224 86.5476C162.08 85.3632 162.707 84.0296 163.074 82.615C163.407 81.1843 163.614 79.7271 163.693 78.2603C163.777 76.9025 163.791 75.6784 163.77 74.6513C163.749 73.6242 163.7 72.7941 163.644 72.2242C163.596 71.9266 163.575 71.6252 163.58 71.3237Z" fill="#455A64"/>
<path d="M140.313 90.2198C140.629 90.2228 140.941 90.1479 141.221 90.0017C141.358 89.9174 141.475 89.8047 141.565 89.6712C141.655 89.5377 141.715 89.3866 141.741 89.2279C141.773 89.0334 141.761 88.8344 141.708 88.6449C141.654 88.4553 141.56 88.2797 141.432 88.1304C141.158 87.8371 140.783 87.6586 140.383 87.6309C140.047 87.6107 139.711 87.6837 139.413 87.8419C138.892 88.1163 138.709 88.454 138.625 88.4188C138.54 88.3836 138.73 87.9967 139.279 87.6168C139.609 87.3954 140 87.2823 140.397 87.2932C140.645 87.2988 140.888 87.3548 141.113 87.4576C141.338 87.5604 141.54 87.7079 141.706 87.8912C141.872 88.0812 141.992 88.3073 142.055 88.5515C142.119 88.7957 142.124 89.0514 142.072 89.2982C142.033 89.4973 141.95 89.685 141.828 89.8471C141.706 90.0093 141.549 90.1415 141.368 90.2339C140.707 90.5153 140.278 90.2479 140.313 90.2198Z" fill="#263238"/>
<path d="M176.301 138.255L179.438 131.565C179.959 129.455 182.084 128.751 184.687 128.582L187.437 127.457C187.437 127.457 189.442 124.565 191.3 124.643C191.445 124.647 191.586 124.698 191.702 124.786C191.817 124.874 191.903 124.996 191.947 125.135C191.978 125.23 191.987 125.33 191.974 125.429C191.961 125.528 191.925 125.622 191.869 125.705L189.611 129.18L187.81 130.067C187.81 130.067 189.499 130.475 190.167 129.848C190.835 129.222 193.094 127.435 193.094 127.435C193.094 127.435 194.817 124.333 197.054 124.565C197.121 124.571 197.186 124.594 197.242 124.631C197.298 124.668 197.344 124.718 197.376 124.777C197.409 124.837 197.425 124.903 197.426 124.97C197.426 125.037 197.409 125.104 197.378 125.163L195.661 128.477C195.661 128.477 198.792 123.77 201.775 125.529L198.468 129.124C198.468 129.124 203.266 126.401 205.18 128.681L193.037 133.697L186.037 135.069L183.589 141.71L181.436 140.464L176.301 138.255Z" fill="#FFBE9D"/>
<path d="M183.575 146.944C183.575 146.944 183.948 158.833 181.753 162.111C179.558 165.39 175.478 169.85 170.426 166.276L167.268 154.317C167.268 154.317 172.41 148.689 173.346 146.367C175.675 140.605 179.438 131.593 179.438 131.593L186.136 134.576L183.575 146.944Z" fill="#FFBE9D"/>
<path d="M174.106 145.276C173.899 145.8 173.645 146.304 173.347 146.782C172.854 147.689 172.193 148.956 171.539 150.391C170.884 151.826 170.357 153.156 169.984 154.126C169.821 154.664 169.607 155.185 169.344 155.681C169.41 155.12 169.544 154.57 169.745 154.042C170.146 152.745 170.633 151.476 171.201 150.243C171.767 149.006 172.408 147.806 173.122 146.648C173.393 146.153 173.724 145.692 174.106 145.276Z" fill="#EB996E"/>
<path d="M189.61 129.145C189.129 129.566 188.573 129.893 187.97 130.109C187.421 130.432 186.814 130.647 186.184 130.742C186.663 130.321 187.216 129.994 187.816 129.778C188.368 129.455 188.977 129.24 189.61 129.145Z" fill="#EB996E"/>
<path d="M190.617 132.29C190.617 132.241 190.934 132.03 191.504 131.783L192.517 131.368L193.101 131.122C193.295 131.048 193.468 130.924 193.6 130.763C194.212 130.06 194.712 129.356 195.113 128.885C195.514 128.414 195.816 128.118 195.851 128.181C195.811 128.264 195.767 128.343 195.718 128.421L195.324 129.04C194.883 129.728 194.396 130.386 193.867 131.009C193.782 131.107 193.688 131.197 193.586 131.277C193.48 131.348 193.367 131.407 193.248 131.453L192.636 131.685C192.249 131.826 191.891 131.931 191.595 132.03C191.281 132.156 190.953 132.243 190.617 132.29Z" fill="#EB996E"/>
<path d="M66.1918 51.9674L60.2389 64.5858L74.0416 62.5495L63.471 71.6557L76.9086 75.4094L63.5481 79.4289L74.2971 88.3237L60.4568 86.5615L66.6587 99.0594L54.7318 91.8202L55.3141 105.76L47.3627 94.2955L42.2249 107.267L39.624 93.5597L29.6543 103.32L32.8536 89.7398L19.7759 94.6013L28.2222 83.4964L14.2978 82.6185L26.5307 75.909L14.1672 69.4434L28.0714 68.2896L19.4066 57.3543L32.5781 61.9555L29.1101 48.4414L39.2714 58.0021L41.6 44.2458L46.994 57.113L54.7165 45.493L54.4107 59.4417L66.1918 51.9674Z" fill="#393939"/>
<path d="M429.706 248.111L425.7 256.603L434.989 255.232L427.875 261.36L436.918 263.887L427.927 266.592L435.161 272.578L425.847 271.392L430.02 279.803L421.994 274.931L422.386 284.312L417.035 276.597L413.577 285.326L411.827 276.101L405.117 282.67L407.27 273.531L398.469 276.802L404.153 269.329L394.783 268.738L403.015 264.223L394.695 259.872L404.052 259.095L398.221 251.736L407.085 254.832L404.751 245.738L411.589 252.172L413.156 242.914L416.787 251.573L421.984 243.754L421.778 253.141L429.706 248.111Z" fill="#393939"/>
</svg>
