<svg width="102" height="91" viewBox="0 0 102 91" fill="none" xmlns="http://www.w3.org/2000/svg">
<path d="M66 0L70.416 15.2241L80.6425 3.11236L78.4846 18.8165L92.7532 11.9113L84.3944 25.38L100.238 24.8754L87.1236 33.7798L101.803 39.763L86.2004 42.5635L97.1769 54L81.7844 50.2123L87.1603 65.1246L74.6391 55.4037L73.4848 71.2133L66 57.24L58.5152 71.2133L57.3609 55.4037L44.8397 65.1246L50.2156 50.2123L34.8231 54L45.7996 42.5635L30.1972 39.763L44.8764 33.7798L31.762 24.8754L47.6056 25.38L39.2468 11.9113L53.5154 18.8165L51.3575 3.11236L61.584 15.2241L66 0Z" fill="#F2F1E9"/>
<path d="M57.6913 30.8593L52.4634 41.941L64.5852 40.1527L55.3019 48.15L67.1031 51.4466L55.3696 54.9766L64.8096 62.7882L52.6548 61.2406L58.1014 72.2165L47.6269 65.8588L48.1384 78.1011L41.1553 68.0328L36.6432 79.4247L34.359 67.3865L25.6034 75.9583L28.4131 64.0318L16.928 68.3013L24.3457 58.5487L12.117 57.7777L22.8601 51.8853L12.0022 46.2071L24.2132 45.1938L16.6036 35.5902L28.1711 39.6311L25.1255 27.7627L34.0493 36.1592L36.0943 24.078L40.8315 35.3782L47.6135 25.1734L47.3449 37.4234L57.6913 30.8593Z" fill="#F26F6F"/>
</svg>
