<svg width="30" height="30" viewBox="0 0 30 30" fill="none" xmlns="http://www.w3.org/2000/svg">
<path d="M26.9325 9.92446C26.5809 9.57295 26.104 9.37549 25.6068 9.37549C25.1097 9.37549 24.6328 9.57295 24.2812 9.92446L15 19.2057L5.71872 9.92446C5.36509 9.58292 4.89146 9.39393 4.39984 9.3982C3.90822 9.40247 3.43795 9.59966 3.09031 9.9473C2.74267 10.2949 2.54548 10.7652 2.54121 11.2568C2.53694 11.7485 2.72593 12.2221 3.06747 12.5757L13.6743 23.1826C14.026 23.5341 14.5028 23.7316 15 23.7316C15.4972 23.7316 15.974 23.5341 16.3256 23.1826L26.9325 12.5757C27.284 12.2241 27.4814 11.7473 27.4814 11.2501C27.4814 10.7529 27.284 10.2761 26.9325 9.92446Z" fill="#393939"/>
</svg>
