<svg width="12" height="9" viewBox="0 0 12 9" fill="none" xmlns="http://www.w3.org/2000/svg">
<path d="M11.5873 0.653725C11.5098 0.575618 11.4177 0.513623 11.3161 0.471315C11.2146 0.429008 11.1057 0.407227 10.9956 0.407227C10.8856 0.407227 10.7767 0.429008 10.6752 0.471315C10.5736 0.513623 10.4814 0.575618 10.404 0.653725L4.19564 6.87039L1.58731 4.25372C1.50688 4.17603 1.41193 4.11493 1.30788 4.07393C1.20383 4.03292 1.09273 4.01282 0.980913 4.01475C0.869096 4.01669 0.758755 4.04062 0.65619 4.0852C0.553624 4.12978 0.460844 4.19412 0.383145 4.27456C0.305446 4.35499 0.244351 4.44994 0.203348 4.55399C0.162345 4.65804 0.142236 4.76914 0.14417 4.88096C0.146105 4.99277 0.170045 5.10311 0.214623 5.20568C0.259201 5.30825 0.323544 5.40103 0.403978 5.47872L3.60398 8.67872C3.68145 8.75683 3.77361 8.81883 3.87516 8.86113C3.97671 8.90344 4.08563 8.92522 4.19564 8.92522C4.30565 8.92522 4.41458 8.90344 4.51613 8.86113C4.61767 8.81883 4.70984 8.75683 4.78731 8.67872L11.5873 1.87873C11.6719 1.80069 11.7394 1.70598 11.7856 1.60056C11.8317 1.49515 11.8556 1.38131 11.8556 1.26623C11.8556 1.15114 11.8317 1.0373 11.7856 0.931886C11.7394 0.82647 11.6719 0.73176 11.5873 0.653725Z" fill="white"/>
</svg>
