<svg width="36" height="36" viewBox="0 0 36 36" fill="none" xmlns="http://www.w3.org/2000/svg">
<path d="M24.6663 15.5C24.6663 16.88 23.9197 18 22.9997 18C22.0797 18 21.333 16.88 21.333 15.5C21.333 14.12 22.0797 13 22.9997 13C23.9197 13 24.6663 14.12 24.6663 15.5ZM14.6663 15.5C14.6663 16.88 13.9197 18 12.9997 18C12.0797 18 11.333 16.88 11.333 15.5C11.333 14.12 12.0797 13 12.9997 13C13.9197 13 14.6663 14.12 14.6663 15.5Z" fill="#F26F6F"/>
<path fill-rule="evenodd" clip-rule="evenodd" d="M17.9047 0.083374H18.0947C21.943 0.083374 24.958 0.0833741 27.3113 0.400041C29.718 0.723374 31.618 1.40004 33.1097 2.89004C34.6013 4.38171 35.2763 6.28171 35.5997 8.69004C35.9163 11.0417 35.9163 14.0567 35.9163 17.905V18.095C35.9163 21.9434 35.9163 24.9584 35.5997 27.3117C35.2763 29.7184 34.5997 31.6184 33.1097 33.11C31.618 34.6017 29.718 35.2767 27.3097 35.6C24.958 35.9167 21.943 35.9167 18.0947 35.9167H17.9047C14.0563 35.9167 11.0413 35.9167 8.68801 35.6C6.28134 35.2767 4.38134 34.6 2.88967 33.11C1.39801 31.6184 0.723008 29.7184 0.399675 27.31C0.0830079 24.9584 0.0830078 21.9434 0.0830078 18.095V17.905C0.0830078 14.0567 0.0830079 11.0417 0.399675 8.68837C0.723008 6.28171 1.39967 4.38171 2.88967 2.89004C4.38134 1.39837 6.28134 0.723374 8.68968 0.400041C11.0413 0.0833741 14.0563 0.083374 17.9047 0.083374ZM9.02134 2.87671C6.89134 3.16337 5.60634 3.71004 4.65801 4.65837C3.70801 5.60837 3.16301 6.89171 2.87634 9.02337C2.58634 11.19 2.58301 14.0367 2.58301 18C2.58301 21.9634 2.58634 24.81 2.87634 26.9767C3.16301 29.1084 3.70967 30.3934 4.65801 31.3434C5.60801 32.2917 6.89134 32.8367 9.02301 33.1234C11.1897 33.4134 14.0363 33.4167 17.9997 33.4167C21.963 33.4167 24.8097 33.4134 26.9763 33.1234C29.108 32.8367 30.393 32.29 31.343 31.3417C32.2913 30.3917 32.8363 29.1084 33.123 26.9767C33.413 24.81 33.4163 21.9634 33.4163 18C33.4163 14.0367 33.413 11.19 33.123 9.02337C32.8363 6.89171 32.2897 5.60671 31.3413 4.65671C30.3913 3.70837 29.108 3.16337 26.9763 2.87671C24.8097 2.58671 21.963 2.58337 17.9997 2.58337C14.0363 2.58337 11.188 2.58671 9.02134 2.87671ZM12.2547 25.33C13.9135 24.0898 15.9285 23.4187 17.9997 23.4167C20.1413 23.4167 22.123 24.1284 23.7447 25.33C23.8806 25.4263 23.9959 25.5487 24.0838 25.6901C24.1718 25.8315 24.2306 25.9891 24.2568 26.1535C24.283 26.318 24.2761 26.486 24.2364 26.6478C24.1968 26.8095 24.1252 26.9617 24.0259 27.0954C23.9267 27.2291 23.8017 27.3416 23.6583 27.4263C23.5149 27.5111 23.3561 27.5663 23.1911 27.5888C23.0261 27.6112 22.8582 27.6005 22.6974 27.5572C22.5366 27.514 22.3861 27.439 22.2547 27.3367C21.0267 26.4167 19.5341 25.9186 17.9997 25.9167C16.4654 25.919 14.9729 26.4171 13.7447 27.3367C13.6132 27.439 13.4627 27.514 13.3019 27.5572C13.1411 27.6005 12.9733 27.6112 12.8083 27.5888C12.6433 27.5663 12.4844 27.5111 12.3411 27.4263C12.1977 27.3416 12.0727 27.2291 11.9734 27.0954C11.8741 26.9617 11.8026 26.8095 11.7629 26.6478C11.7233 26.486 11.7164 26.318 11.7426 26.1535C11.7688 25.9891 11.8276 25.8315 11.9155 25.6901C12.0035 25.5487 12.1188 25.4263 12.2547 25.33Z" fill="#F26F6F"/>
</svg>
