<svg width="50" height="50" viewBox="0 0 50 50" fill="none" xmlns="http://www.w3.org/2000/svg">
<g clip-path="url(#clip0_429_6911)">
<path d="M25 0C18.3696 0 12.0107 2.63392 7.32233 7.32233C2.63392 12.0107 0 18.3696 0 25C0 31.6304 2.63392 37.9893 7.32233 42.6777C12.0107 47.3661 18.3696 50 25 50C31.6304 50 37.9893 47.3661 42.6777 42.6777C47.3661 37.9893 50 31.6304 50 25C50 18.3696 47.3661 12.0107 42.6777 7.32233C37.9893 2.63392 31.6304 0 25 0Z" fill="#F26F6F"/>
<path d="M37.4375 13.75L32.755 37.6575C32.755 37.6575 32.5537 38.75 31.1987 38.75C30.4788 38.75 30.1075 38.4075 30.1075 38.4075L19.965 29.9913L15.0025 27.49L8.63375 25.7963C8.63375 25.7963 7.5 25.4688 7.5 24.5313C7.5 23.75 8.66625 23.3775 8.66625 23.3775L35.3113 12.7925C35.3113 12.7925 36.125 12.4988 36.7188 12.5C37.0837 12.5 37.5 12.6563 37.5 13.125C37.5 13.4375 37.4375 13.75 37.4375 13.75Z" fill="white"/>
<path d="M23.75 33.1308L19.4675 37.3483C19.4675 37.3483 19.2813 37.492 19.0325 37.4983C18.9463 37.5008 18.8538 37.487 18.7588 37.4445L19.9638 29.9883L23.75 33.1308Z" fill="#B0BEC5"/>
<path d="M32.3713 17.7449C32.16 17.4699 31.77 17.4199 31.495 17.6286L15 27.4999C15 27.4999 17.6325 34.8649 18.0338 36.1399C18.4362 37.4161 18.7587 37.4461 18.7587 37.4461L19.9638 29.9899L32.2537 18.6199C32.5287 18.4111 32.58 18.0199 32.3713 17.7449Z" fill="#EAECED"/>
</g>
<defs>
<clipPath id="clip0_429_6911">
<rect width="50" height="50" fill="white"/>
</clipPath>
</defs>
</svg>
