<svg width="50" height="50" viewBox="0 0 50 50" fill="none" xmlns="http://www.w3.org/2000/svg">
<g clip-path="url(#clip0_429_6888)">
<path d="M25 0C18.3696 0 12.0107 2.63392 7.32233 7.32233C2.63392 12.0107 0 18.3696 0 25C0 31.6304 2.63392 37.9893 7.32233 42.6777C12.0107 47.3661 18.3696 50 25 50C31.6304 50 37.9893 47.3661 42.6777 42.6777C47.3661 37.9893 50 31.6304 50 25C50 18.3696 47.3661 12.0107 42.6777 7.32233C37.9893 2.63392 31.6304 0 25 0Z" fill="#F26F6F"/>
<path d="M39.9212 17.5513C39.9788 17.3625 40.0063 17.1875 39.9988 17.0312C39.98 16.5788 39.6687 16.25 38.9362 16.25H35.6637C34.8375 16.25 34.4562 16.75 34.2337 17.2513C34.2337 17.2513 32.1938 21.45 29.8425 24.2188C29.08 25.02 28.6925 25 28.28 25C28.0588 25 27.5 24.7325 27.5 23.9987V17.5175C27.5 16.65 27.2837 16.25 26.585 16.25H20.7737C20.265 16.25 20 16.65 20 17.0513C20 17.885 21.1225 18.085 21.25 20.4212V24.95C21.25 26.05 21.0588 26.25 20.6462 26.25C19.5338 26.25 17.3437 22.5 15.8775 17.585C15.56 16.6175 15.2425 16.25 14.4163 16.25H11.1125C10.1588 16.25 10 16.7175 10 17.2175C10 18.1188 10.75 22.9913 14.8438 28.5938C17.8125 32.6562 21.7238 35 25.1863 35C27.2838 35 27.4988 34.4662 27.4988 33.6325V29.9175C27.5 28.9163 27.7287 28.75 28.3962 28.75C28.8725 28.75 29.8438 29.0625 31.7188 31.25C33.8813 33.7725 34.2737 35 35.5137 35H38.7862C39.5462 35 39.9825 34.6812 40 34.0625C40.0037 33.905 39.9813 33.7288 39.93 33.5325C39.6875 32.8125 38.575 31.0525 37.1875 29.375C36.4188 28.4462 35.66 27.5263 35.3113 27.0263C35.0775 26.7 34.9888 26.47 35 26.25C35.0112 26.0188 35.1313 25.7987 35.3113 25.4912C35.2788 25.4912 39.5088 19.5525 39.9212 17.5513Z" fill="white"/>
</g>
<defs>
<clipPath id="clip0_429_6888">
<rect width="50" height="50" fill="white"/>
</clipPath>
</defs>
</svg>
