<svg width="290" height="176" viewBox="0 0 290 176" fill="none" xmlns="http://www.w3.org/2000/svg">
  <path d="M300.01 170.877C269.122 172.188 240.499 179.938 209.411 181.391C187.404 182.411 166.049 185.815 143.858 185.897C84.3852 186.327 24.5606 184.017 -34.891 183.081" stroke="url(#paint0_linear_1423_8272)" stroke-opacity="0.2" stroke-width="0.75" stroke-miterlimit="10"/>
  <path d="M300.163 167.425C269.565 169.101 240.667 175.552 209.972 177.154C187.469 178.311 166.005 182.36 143.419 182.508C84.3406 182.944 24.3212 180.488 -34.7316 179.27" stroke="url(#paint1_linear_1423_8272)" stroke-opacity="0.2" stroke-width="0.75" stroke-miterlimit="10"/>
  <path d="M300.306 164.696C270.301 166.309 240.743 170.807 210.733 172.708C187.436 174.211 165.655 179.623 142.083 179.755C116.538 179.928 91.4493 176.224 66.0156 175.607C32.3999 174.79 -1.05152 176.061 -34.6684 175.316" stroke="url(#paint2_linear_1423_8272)" stroke-opacity="0.2" stroke-width="0.75" stroke-miterlimit="10"/>
  <path d="M300.538 162.469C271.229 163.734 240.922 165.702 211.793 168.049C187.304 170.037 165 177.383 140.047 177.565C114.403 177.736 90.1379 171.815 64.7134 170.623C31.6019 169.094 -1.48004 171.954 -34.6073 171.432" stroke="url(#paint3_linear_1423_8272)" stroke-opacity="0.2" stroke-width="0.75" stroke-miterlimit="10"/>
  <path d="M300.762 160.674C271.856 161.37 241.589 160.821 212.953 163.176C186.884 165.354 164.138 175.643 137.412 175.725C111.572 175.821 88.3348 167.255 62.9216 165.344C30.5161 162.819 -2.20319 167.699 -34.6449 167.475" stroke="url(#paint4_linear_1423_8272)" stroke-opacity="0.2" stroke-width="0.75" stroke-miterlimit="10"/>
  <path d="M300.98 159.313C272.678 159.226 242.267 155.294 214.211 158.377C186.649 161.396 162.972 174.475 134.375 174.384C108.243 174.26 86.2327 162.907 60.9339 159.991C29.434 156.329 -3.02469 163.443 -34.6833 163.592" stroke="url(#paint5_linear_1423_8272)" stroke-opacity="0.2" stroke-width="0.75" stroke-miterlimit="10"/>
  <path d="M301.297 158.092C273.304 157.22 243.443 149.628 215.573 153.433C186.517 157.435 161.51 173.514 131.143 173.108C104.521 172.76 84.1351 158.483 58.8533 154.488C28.456 149.693 -4.03896 159.108 -34.5212 159.707" stroke="url(#paint6_linear_1423_8272)" stroke-opacity="0.2" stroke-width="0.75" stroke-miterlimit="10"/>
  <path d="M301.61 156.947C273.63 155.212 245.209 143.902 217.031 148.493C186.48 153.407 159.949 172.412 127.805 172.049C100.888 171.697 81.6385 154.129 56.6706 148.988C27.376 143.06 -5.05772 154.85 -34.4611 155.825" stroke="url(#paint7_linear_1423_8272)" stroke-opacity="0.2" stroke-width="0.75" stroke-miterlimit="10"/>
  <path d="M301.926 155.729C273.664 153.054 247.47 138.11 218.392 143.479C186.643 149.381 158.19 171.376 124.473 170.773C97.0637 170.341 79.1469 149.557 54.4906 143.414C26.2975 136.424 -6.0739 150.517 -34.3985 151.869" stroke="url(#paint8_linear_1423_8272)" stroke-opacity="0.2" stroke-width="0.75" stroke-miterlimit="10"/>
  <path d="M302.242 154.439C273.502 150.893 250.026 132.395 219.751 138.608C186.904 145.356 156.532 170.271 121.337 169.501C93.5363 168.919 76.7527 145.06 52.5044 138.06C25.3119 130.15 -6.89514 146.331 -34.3369 147.985" stroke="url(#paint9_linear_1423_8272)" stroke-opacity="0.2" stroke-width="0.75" stroke-miterlimit="10"/>
  <path d="M302.464 152.788C273.243 148.443 252.479 126.824 221.01 133.737C187.165 141.189 154.976 168.736 118.601 167.804C90.3095 167.07 74.7521 140.497 50.7146 132.637C24.1261 123.945 -7.6174 142.004 -34.2749 143.958" stroke="url(#paint10_linear_1423_8272)" stroke-opacity="0.2" stroke-width="0.75" stroke-miterlimit="10"/>
  <path d="M302.694 150.777C272.891 145.847 254.932 121.466 222.071 129.077C205.443 132.915 189.242 140.932 174.251 147.242C158.367 153.97 135.981 166.422 116.267 165.823C87.4837 165.01 73.1468 136.082 49.2181 127.576C23.0342 118.244 -8.04521 137.968 -34.2132 140.146" stroke="url(#paint11_linear_1423_8272)" stroke-opacity="0.2" stroke-width="0.75" stroke-miterlimit="10"/>
  <path d="M302.832 148.262C272.54 143.037 256.983 116.464 222.932 124.488C205.807 128.534 189.105 137.047 173.813 143.712C157.727 150.724 134.739 163.886 114.63 163.281C85.1577 162.385 72.3292 131.61 48.2101 122.67C22.0319 112.978 -8.17947 133.939 -34.1503 136.119" stroke="url(#paint12_linear_1423_8272)" stroke-opacity="0.2" stroke-width="0.75" stroke-miterlimit="10"/>
  <path d="M302.982 145.1C272.096 140.01 258.633 111.959 223.593 120.183C206.171 124.296 189.068 133.234 173.674 140.114C157.387 147.338 134.393 160.859 113.891 160.177C83.5327 159.195 72.3972 127.368 47.7885 118.204C21.3168 108.364 -7.92221 130.203 -33.9905 132.31" stroke="url(#paint13_linear_1423_8272)" stroke-opacity="0.2" stroke-width="0.75" stroke-miterlimit="10"/>
  <path d="M303.142 141.216C272.355 136.128 258.694 108.073 223.85 116.372C206.329 120.556 189.228 129.351 173.638 136.155C157.353 143.236 134.064 156.752 113.658 156.215C83.1974 155.447 72.462 123.267 47.8533 114.103C21.0869 104.186 -7.66368 126.321 -34.0266 128.351" stroke="url(#paint14_linear_1423_8272)" stroke-opacity="0.2" stroke-width="0.75" stroke-miterlimit="10"/>
  <path d="M303.896 137.129C273.604 131.904 257.945 105.545 224.09 113.644C206.569 117.828 189.379 126.046 173.497 132.557C157.119 139.277 133.244 152.425 113.132 152.036C83.3594 151.423 72.2273 119.38 48.3065 110.371C21.5435 100.238 -7.50622 122.584 -33.8691 124.614" stroke="url(#paint15_linear_1423_8272)" stroke-opacity="0.2" stroke-width="0.75" stroke-miterlimit="10"/>
  <path d="M305.048 132.759C274.949 127.824 257.28 103.807 224.222 111.415C206.506 115.452 189.328 122.879 172.96 128.951C156.295 135.163 131.738 147.724 111.923 147.268C82.8428 146.522 72.0938 115.205 48.8631 106.207C22.201 95.9315 -7.54229 118.482 -33.9052 120.513" stroke="url(#paint16_linear_1423_8272)" stroke-opacity="0.2" stroke-width="0.75" stroke-miterlimit="10"/>
  <path d="M306.696 128.325C276.589 123.894 256.801 102.937 224.446 109.764C206.636 113.512 189.176 120.071 172.323 125.632C155.173 131.261 130.039 142.95 110.326 142.28C81.9391 141.329 72.1602 111.034 49.6186 102.118C23.1559 91.7025 -7.48157 114.671 -33.7459 116.703" stroke="url(#paint17_linear_1423_8272)" stroke-opacity="0.2" stroke-width="0.75" stroke-miterlimit="10"/>
  <path d="M308.643 123.752C278.524 120.041 256.314 102.57 224.665 108.402C206.664 111.715 188.922 117.406 171.587 122.312C153.954 127.286 128.244 137.959 108.536 137.001C80.7473 135.628 72.5243 106.724 50.3748 97.959C24.0119 87.4727 -7.51858 110.787 -33.7829 112.819" stroke="url(#paint18_linear_1423_8272)" stroke-opacity="0.2" stroke-width="0.75" stroke-miterlimit="10"/>
  <path d="M310.788 119.11C280.654 116.333 255.921 102.563 224.88 107.326C206.592 110.131 188.568 114.882 170.851 118.991C152.639 123.236 126.356 132.677 106.653 131.36C78.6756 129.48 73.8875 101.638 51.3312 93.6572C23.6763 83.798 -6.26985 106.705 -33.8193 108.933" stroke="url(#paint19_linear_1423_8272)" stroke-opacity="0.2" stroke-width="0.75" stroke-miterlimit="10"/>
  <path d="M313.129 114.399C284.753 112.729 258.083 102.957 229.339 105.885C205.436 108.314 181.979 113.628 158.64 117.792C142.915 120.637 122.013 126.566 105.57 124.941C76.9177 122.043 74.6681 95.8234 50.1308 88.3872C23.4336 80.3414 -7.0985 102.88 -33.5611 104.981" stroke="url(#paint20_linear_1423_8272)" stroke-opacity="0.2" stroke-width="0.75" stroke-miterlimit="10"/>
  <path d="M315.47 109.688C286.785 108.876 258.576 102.893 229.746 105.029C205.656 106.807 181.729 110.674 157.914 113.752C141.707 115.87 120.724 120.719 104.087 118.875C76.5224 115.779 74.9369 91.2238 51.2836 84.0173C24.6861 75.9012 -7.13562 98.9227 -33.5008 101.097" stroke="url(#paint21_linear_1423_8272)" stroke-opacity="0.2" stroke-width="0.75" stroke-miterlimit="10"/>
  <path d="M317.715 104.975C288.525 104.947 259.271 102.688 230.158 104.027C205.783 105.082 181.582 107.578 157.391 109.499C140.703 110.819 119.834 114.662 103.003 112.598C76.5271 109.304 75.2079 86.6235 52.4386 79.6467C25.841 71.5306 -6.97341 94.9681 -33.4372 97.1408" stroke="url(#paint22_linear_1423_8272)" stroke-opacity="0.2" stroke-width="0.75" stroke-miterlimit="10"/>
  <path d="M319.76 100.404C290.066 101.087 260.362 102.346 230.572 102.811C206.109 103.217 181.635 104.27 157.166 105.036C139.997 105.629 119.442 108.326 102.317 106.114C76.9254 102.837 75.4805 81.8807 53.4942 75.2759C26.6983 67.2286 -6.81082 90.9429 -33.474 93.2564" stroke="url(#paint23_linear_1423_8272)" stroke-opacity="0.2" stroke-width="0.75" stroke-miterlimit="10"/>
  <path d="M321.508 95.8261C291.213 97.0752 261.46 101.426 230.992 101.162C206.439 100.991 181.79 100.603 157.24 100.288C139.689 100.083 119.644 101.71 102.225 99.421C77.8187 96.1591 75.7539 76.9918 54.4498 70.9013C27.2562 63.0636 -6.55099 86.917 -33.5111 89.2977" stroke="url(#paint24_linear_1423_8272)" stroke-opacity="0.2" stroke-width="0.75" stroke-miterlimit="10"/>
  <path d="M322.959 91.461C292.165 93.062 262.666 100.079 231.519 99.0843C189.824 97.78 144.16 97.9957 103.022 92.6718C79.5003 89.6396 76.2251 72.1797 55.5036 66.6739C27.5155 59.1833 -5.70008 83.046 -33.3504 85.4159" stroke="url(#paint25_linear_1423_8272)" stroke-opacity="0.2" stroke-width="0.75" stroke-miterlimit="10"/>
  <path d="M323.912 87.2349C294.007 88.706 265.858 97.6861 235.699 96.5635C192.53 94.9482 146.936 90.777 104.213 85.8598C81.1774 83.2668 75.434 65.9838 54.1956 61.9805C25.1888 56.56 -4.75168 79.1076 -33.1907 81.465" stroke="url(#paint26_linear_1423_8272)" stroke-opacity="0.2" stroke-width="0.75" stroke-miterlimit="10"/>
  <path d="M324.271 83.2098C294.175 84.3182 266.498 94.6725 236.05 93.0418C193.089 90.7824 149.821 82.9072 107.087 78.7091C84.4401 76.482 75.9055 61.0973 54.6547 57.8851C24.4512 53.3089 -3.7022 75.0934 -33.1294 77.5791" stroke="url(#paint27_linear_1423_8272)" stroke-opacity="0.2" stroke-width="0.75" stroke-miterlimit="10"/>
  <path d="M323.939 79.3203C294.034 80.7914 265.485 90.1248 235.333 88.5707C193.456 86.3284 150.758 79.829 109.212 75.3618C86.5681 72.919 75.7624 57.7143 54.2147 54.5693C24.4022 50.2151 -4.03112 70.9881 -33.166 73.6942" stroke="url(#paint28_linear_1423_8272)" stroke-opacity="0.2" stroke-width="0.75" stroke-miterlimit="10"/>
  <path d="M323.114 75.3515C292.024 76.9478 261.625 84.8134 230.295 82.8811C191.378 80.5415 151.203 76.6714 112.615 72.179C90.0725 69.5939 77.0707 56.081 55.7292 52.3638C25.537 47.0685 -3.67143 66.966 -33.0046 69.741" stroke="url(#paint29_linear_1423_8272)" stroke-opacity="0.2" stroke-width="0.75" stroke-miterlimit="10"/>
  <path d="M321.597 71.3705C290.315 72.6761 259.164 78.1559 227.825 76.799C190.869 75.2096 152.339 73.3078 115.716 69.3498C92.4804 66.8977 76.6103 53.9151 54.2795 50.3981C24.2754 45.6812 -3.81109 63.2226 -33.0423 65.7833" stroke="url(#paint30_linear_1423_8272)" stroke-opacity="0.2" stroke-width="0.75" stroke-miterlimit="10"/>
  <path d="M319.785 67.4584C253.193 69.0709 185.779 72.7565 119.207 66.8161C94.8826 64.6345 76.2394 52.3996 52.6235 49.0782C23.0047 44.9428 -3.95422 59.7684 -32.8839 61.9742" stroke="url(#paint31_linear_1423_8272)" stroke-opacity="0.2" stroke-width="0.75" stroke-miterlimit="10"/>
  <path d="M317.678 63.4674C285.626 63.5379 253.488 62.8158 221.43 63.2459C189.077 63.6713 155.11 66.3732 122.896 64.2112C97.3809 62.5144 75.5612 51.5962 50.6669 48.0388C22.2313 43.9221 -4.78999 56.4447 -32.8233 58.0892" stroke="url(#paint32_linear_1423_8272)" stroke-opacity="0.2" stroke-width="0.75" stroke-miterlimit="10"/>
  <path d="M315.277 59.473C282.843 58.7462 250.072 54.3454 217.701 55.9216C187.797 57.3927 156.648 62.7287 126.588 61.5358C99.6827 60.4645 74.7885 50.6487 48.5128 47.1415C20.9566 43.5423 -5.42669 53.1256 -32.8583 54.1321" stroke="url(#paint33_linear_1423_8272)" stroke-opacity="0.2" stroke-width="0.75" stroke-miterlimit="10"/>
  <path d="M312.874 55.4786C280.354 53.9592 246.364 45.5827 213.872 48.5237C186.22 51.0374 158.285 58.9418 130.381 58.6461C102.181 58.3456 74.116 49.4871 46.3557 46.3162C19.6778 43.3062 -6.0652 49.8064 -32.6978 50.1781" stroke="url(#paint34_linear_1423_8272)" stroke-opacity="0.2" stroke-width="0.75" stroke-miterlimit="10"/>
  <path d="M310.472 51.4866C277.276 49.0933 240.299 36.2817 207.18 41.5148C183.353 45.3116 158.827 55.9313 134.172 55.9745C105.768 56.1025 75.4115 48.7185 47.2524 45.829C20.3738 43.0317 -5.91427 46.574 -32.8325 46.2938" stroke="url(#paint35_linear_1423_8272)" stroke-opacity="0.2" stroke-width="0.75" stroke-miterlimit="10"/>
  <path d="M308.265 47.5664C274.981 44.4524 237.069 28.389 203.84 34.3397C181.39 38.374 161.456 51.7277 137.777 52.4337C108.177 53.406 75.0424 47.0572 45.4939 44.7214C19.4913 42.6572 -6.45453 43.2555 -32.5749 42.4124" stroke="url(#paint36_linear_1423_8272)" stroke-opacity="0.2" stroke-width="0.75" stroke-miterlimit="10"/>
  <path d="M306.158 43.5755C273.671 39.9705 232.861 20.1208 200.597 27.3815C179.517 32.0849 163.503 47.0109 140.702 48.3062C109.906 50.051 74.4826 45.0329 43.5447 43.2507C18.1236 41.8431 -7.18882 39.7898 -32.6111 38.4541" stroke="url(#paint37_linear_1423_8272)" stroke-opacity="0.2" stroke-width="0.75" stroke-miterlimit="10"/>
  <path d="M304.543 39.5939C272.948 35.7152 229.428 12.5857 197.938 20.7938C177.836 26.0161 165.654 41.8657 143.34 43.5284C111.449 45.9033 74.4247 42.3707 42.094 41.3578C16.861 40.5286 -7.33173 36.263 -32.4526 34.5724" stroke="url(#paint38_linear_1423_8272)" stroke-opacity="0.2" stroke-width="0.75" stroke-miterlimit="10"/>
  <path d="M303.325 35.6188C282.264 32.9131 264.31 27.0193 244.68 21.0271C229.762 16.476 212.011 10.2257 195.865 14.7191C176.352 20.1664 167.522 36.0689 145.206 37.8754C112.026 40.6617 74.4793 38.9911 40.8556 38.6772C15.3166 38.4906 -7.36785 32.3784 -32.3879 30.5455" stroke="url(#paint39_linear_1423_8272)" stroke-opacity="0.2" stroke-width="0.75" stroke-miterlimit="10"/>
  <path d="M302.696 31.7244C281.239 29.0844 263.489 22.7622 243.668 16.4074C229.145 11.7906 210.515 5.02287 194.471 9.30203C175.158 14.5368 168.609 29.6119 146.195 31.4169C111.735 34.111 74.7406 34.895 40.0188 35.427C14.0752 35.8815 -7.10878 28.4261 -32.3282 26.734" stroke="url(#paint40_linear_1423_8272)" stroke-opacity="0.2" stroke-width="0.75" stroke-miterlimit="10"/>
  <path d="M302.758 27.8417C281.202 25.2002 263.552 18.8076 243.632 12.4512C229.208 7.83592 210.38 1.06513 194.243 5.05507C174.937 9.85831 168.697 24.0751 146.384 25.6658C111.432 28.2803 75.2058 30.4431 39.9819 31.5427C13.7357 32.424 -6.94731 24.473 -32.3651 22.8497" stroke="url(#paint41_linear_1423_8272)" stroke-opacity="0.2" stroke-width="0.75" stroke-miterlimit="10"/>
  <path d="M303.412 23.8944C282.152 21.2576 264.301 15.0776 244.477 8.93857C229.953 4.39363 211.318 -2.08639 195.182 1.75972C175.977 6.42068 168.664 19.9012 146.742 21.7139C112.28 24.5519 76.8399 26.871 42.1023 28.4098C15.1614 29.568 -6.3002 20.9573 -32.4013 18.8916" stroke="url(#paint42_linear_1423_8272)" stroke-opacity="0.2" stroke-width="0.75" stroke-miterlimit="10"/>
  <path d="M304.755 20.0315C272.47 16.07 229.658 -8.19926 196.999 -0.872853C177.898 3.43007 168.925 15.8774 147.691 17.8448C114.113 20.9125 79.9451 23.8271 46.1843 25.9568C18.0501 27.7436 -4.96856 17.8135 -32.2415 15.01" stroke="url(#paint43_linear_1423_8272)" stroke-opacity="0.2" stroke-width="0.75" stroke-miterlimit="10"/>
  <path d="M306.493 16.1742C273.811 12.4222 232.445 -9.73819 199.303 -3.06681C180.209 0.804614 169.383 11.9279 148.641 13.975C116.243 17.2052 83.7379 21.0092 51.2475 23.8783C22.0152 26.511 -3.83434 14.7379 -32.1793 11.1262" stroke="url(#paint44_linear_1423_8272)" stroke-opacity="0.2" stroke-width="0.75" stroke-miterlimit="10"/>
  <path d="M308.623 12.3241C275.344 8.92237 235.715 -10.8367 202.093 -5.03613C183.205 -1.73695 169.747 7.47454 149.884 10.039C119.053 14.0133 88.1196 18.2017 57.1931 21.9587C27.0576 25.5842 -2.8989 11.5884 -32.1188 7.17163" stroke="url(#paint45_linear_1423_8272)" stroke-opacity="0.2" stroke-width="0.75" stroke-miterlimit="10"/>
  <path d="M310.952 8.47427C277.173 5.49629 239.278 -11.6458 205.078 -6.71755C186.199 -3.9937 170.498 3.59988 151.227 6.17368C121.778 10.0258 92.698 15.5383 63.4363 20.0408C32.8883 24.8108 -2.25629 8.35945 -32.0575 3.28609" stroke="url(#paint46_linear_1423_8272)" stroke-opacity="0.2" stroke-width="0.75" stroke-miterlimit="10"/>
  <path d="M313.478 4.63131C279.789 2.23022 244.896 -11.4117 210.927 -8.56594C191.177 -6.93483 172.918 0.258781 153.059 2.60751C123.812 6.17511 95.8707 14.511 66.8175 18.2974C36.283 22.2044 -2.10035 4.76688 -31.8959 -0.666074" stroke="url(#paint47_linear_1423_8272)" stroke-opacity="0.2" stroke-width="0.75" stroke-miterlimit="10"/>
  <path d="M316.103 0.788523C282.306 -1.03877 248.358 -12.0762 214.302 -10.023C194.461 -8.82498 174.359 -3.53074 154.695 -1.10698C126.732 2.33697 100.258 11.4153 72.4802 15.6535C55.6751 18.1942 39.5909 12.5457 23.6799 8.41049C5.21467 3.65959 -13.0568 -0.872466 -31.9335 -4.55082" stroke="url(#paint48_linear_1423_8272)" stroke-opacity="0.2" stroke-width="0.75" stroke-miterlimit="10"/>
  <path d="M318.529 -2.98738C284.822 -4.3097 251.428 -12.8926 217.482 -11.557C197.451 -10.7936 175.897 -7.3206 156.137 -4.97032C129.36 -1.72347 103.936 9.60142 77.072 12.1275C43.0981 15.261 1.3603 -2.08557 -31.971 -8.43745" stroke="url(#paint49_linear_1423_8272)" stroke-opacity="0.2" stroke-width="0.75" stroke-miterlimit="10"/>
  <path d="M320.857 -6.83385C287.341 -7.72156 254.206 -13.9984 220.565 -13.2336C200.144 -12.764 177.731 -11.031 157.577 -8.75887C131.299 -5.86385 106.569 5.18425 80.298 7.64776C45.7304 10.9157 2.20995 -5.95534 -31.8115 -12.3181" stroke="url(#paint50_linear_1423_8272)" stroke-opacity="0.2" stroke-width="0.75" stroke-miterlimit="10"/>
  <path d="M322.792 -10.6884C267.776 -11.4832 213.636 -17.8033 158.724 -12.6978C132.551 -10.2327 107.642 -0.338369 81.4754 1.76712C46.2232 4.66462 2.9691 -10.332 -31.7493 -16.2741" stroke="url(#paint51_linear_1423_8272)" stroke-opacity="0.2" stroke-width="0.75" stroke-miterlimit="10"/>
  <path d="M324.43 -14.5477C269.704 -14.9782 213.782 -20.8947 159.187 -17.151C131.841 -15.2799 105.173 -6.42041 77.7382 -5.19813C42.8022 -3.59047 2.65211 -15.3011 -31.6889 -20.1582" stroke="url(#paint52_linear_1423_8272)" stroke-opacity="0.2" stroke-width="0.75" stroke-miterlimit="10"/>
  <defs>
  <linearGradient id="paint0_linear_1423_8272" x1="132.412" y1="186.324" x2="132.697" y2="168.241" gradientUnits="userSpaceOnUse">
  <stop stop-color="white" stop-opacity="0"/>
  <stop offset="1" stop-color="white"/>
  </linearGradient>
  <linearGradient id="paint1_linear_1423_8272" x1="132.565" y1="182.901" x2="132.851" y2="164.79" gradientUnits="userSpaceOnUse">
  <stop stop-color="white" stop-opacity="0"/>
  <stop offset="1" stop-color="white"/>
  </linearGradient>
  <linearGradient id="paint2_linear_1423_8272" x1="132.666" y1="179.674" x2="132.944" y2="162.059" gradientUnits="userSpaceOnUse">
  <stop stop-color="white" stop-opacity="0"/>
  <stop offset="1" stop-color="white"/>
  </linearGradient>
  <linearGradient id="paint3_linear_1423_8272" x1="132.799" y1="177.493" x2="133.078" y2="159.831" gradientUnits="userSpaceOnUse">
  <stop stop-color="white" stop-opacity="0"/>
  <stop offset="1" stop-color="white"/>
  </linearGradient>
  <linearGradient id="paint4_linear_1423_8272" x1="132.876" y1="175.676" x2="133.154" y2="158.034" gradientUnits="userSpaceOnUse">
  <stop stop-color="white" stop-opacity="0"/>
  <stop offset="1" stop-color="white"/>
  </linearGradient>
  <linearGradient id="paint5_linear_1423_8272" x1="132.945" y1="174.367" x2="133.242" y2="155.502" gradientUnits="userSpaceOnUse">
  <stop stop-color="white" stop-opacity="0"/>
  <stop offset="1" stop-color="white"/>
  </linearGradient>
  <linearGradient id="paint6_linear_1423_8272" x1="133.164" y1="173.14" x2="133.516" y2="150.795" gradientUnits="userSpaceOnUse">
  <stop stop-color="white" stop-opacity="0"/>
  <stop offset="1" stop-color="white"/>
  </linearGradient>
  <linearGradient id="paint7_linear_1423_8272" x1="133.326" y1="172.136" x2="133.74" y2="145.857" gradientUnits="userSpaceOnUse">
  <stop stop-color="white" stop-opacity="0"/>
  <stop offset="1" stop-color="white"/>
  </linearGradient>
  <linearGradient id="paint8_linear_1423_8272" x1="133.494" y1="170.915" x2="133.969" y2="140.78" gradientUnits="userSpaceOnUse">
  <stop stop-color="white" stop-opacity="0"/>
  <stop offset="1" stop-color="white"/>
  </linearGradient>
  <linearGradient id="paint9_linear_1423_8272" x1="133.661" y1="169.696" x2="134.196" y2="135.79" gradientUnits="userSpaceOnUse">
  <stop stop-color="white" stop-opacity="0"/>
  <stop offset="1" stop-color="white"/>
  </linearGradient>
  <linearGradient id="paint10_linear_1423_8272" x1="133.784" y1="168.046" x2="134.371" y2="130.819" gradientUnits="userSpaceOnUse">
  <stop stop-color="white" stop-opacity="0"/>
  <stop offset="1" stop-color="white"/>
  </linearGradient>
  <linearGradient id="paint11_linear_1423_8272" x1="133.915" y1="166.106" x2="134.547" y2="126.036" gradientUnits="userSpaceOnUse">
  <stop stop-color="white" stop-opacity="0"/>
  <stop offset="1" stop-color="white"/>
  </linearGradient>
  <linearGradient id="paint12_linear_1423_8272" x1="134.004" y1="163.591" x2="134.669" y2="121.398" gradientUnits="userSpaceOnUse">
  <stop stop-color="white" stop-opacity="0"/>
  <stop offset="1" stop-color="white"/>
  </linearGradient>
  <linearGradient id="paint13_linear_1423_8272" x1="134.152" y1="160.503" x2="134.836" y2="117.085" gradientUnits="userSpaceOnUse">
  <stop stop-color="white" stop-opacity="0"/>
  <stop offset="1" stop-color="white"/>
  </linearGradient>
  <linearGradient id="paint14_linear_1423_8272" x1="134.215" y1="156.541" x2="134.898" y2="113.157" gradientUnits="userSpaceOnUse">
  <stop stop-color="white" stop-opacity="0"/>
  <stop offset="1" stop-color="white"/>
  </linearGradient>
  <linearGradient id="paint15_linear_1423_8272" x1="134.675" y1="152.376" x2="135.353" y2="109.348" gradientUnits="userSpaceOnUse">
  <stop stop-color="white" stop-opacity="0"/>
  <stop offset="1" stop-color="white"/>
  </linearGradient>
  <linearGradient id="paint16_linear_1423_8272" x1="135.241" y1="147.637" x2="135.91" y2="105.138" gradientUnits="userSpaceOnUse">
  <stop stop-color="white" stop-opacity="0"/>
  <stop offset="1" stop-color="white"/>
  </linearGradient>
  <linearGradient id="paint17_linear_1423_8272" x1="136.157" y1="142.694" x2="136.814" y2="101.024" gradientUnits="userSpaceOnUse">
  <stop stop-color="white" stop-opacity="0"/>
  <stop offset="1" stop-color="white"/>
  </linearGradient>
  <linearGradient id="paint18_linear_1423_8272" x1="137.127" y1="137.479" x2="137.767" y2="96.8651" gradientUnits="userSpaceOnUse">
  <stop stop-color="white" stop-opacity="0"/>
  <stop offset="1" stop-color="white"/>
  </linearGradient>
  <linearGradient id="paint19_linear_1423_8272" x1="138.202" y1="131.928" x2="138.818" y2="92.8095" gradientUnits="userSpaceOnUse">
  <stop stop-color="white" stop-opacity="0"/>
  <stop offset="1" stop-color="white"/>
  </linearGradient>
  <linearGradient id="paint20_linear_1423_8272" x1="139.532" y1="125.668" x2="140.121" y2="88.2639" gradientUnits="userSpaceOnUse">
  <stop stop-color="white" stop-opacity="0"/>
  <stop offset="1" stop-color="white"/>
  </linearGradient>
  <linearGradient id="paint21_linear_1423_8272" x1="140.759" y1="119.748" x2="141.323" y2="83.8957" gradientUnits="userSpaceOnUse">
  <stop stop-color="white" stop-opacity="0"/>
  <stop offset="1" stop-color="white"/>
  </linearGradient>
  <linearGradient id="paint22_linear_1423_8272" x1="141.941" y1="113.653" x2="142.478" y2="79.5476" gradientUnits="userSpaceOnUse">
  <stop stop-color="white" stop-opacity="0"/>
  <stop offset="1" stop-color="white"/>
  </linearGradient>
  <linearGradient id="paint23_linear_1423_8272" x1="142.977" y1="107.394" x2="143.484" y2="75.2165" gradientUnits="userSpaceOnUse">
  <stop stop-color="white" stop-opacity="0"/>
  <stop offset="1" stop-color="white"/>
  </linearGradient>
  <linearGradient id="paint24_linear_1423_8272" x1="143.866" y1="100.988" x2="144.339" y2="70.9226" gradientUnits="userSpaceOnUse">
  <stop stop-color="white" stop-opacity="0"/>
  <stop offset="1" stop-color="white"/>
  </linearGradient>
  <linearGradient id="paint25_linear_1423_8272" x1="144.658" y1="97.7401" x2="145.145" y2="66.8125" gradientUnits="userSpaceOnUse">
  <stop stop-color="white" stop-opacity="0"/>
  <stop offset="1" stop-color="white"/>
  </linearGradient>
  <linearGradient id="paint26_linear_1423_8272" x1="145.19" y1="95.1694" x2="145.701" y2="62.7237" gradientUnits="userSpaceOnUse">
  <stop stop-color="white" stop-opacity="0"/>
  <stop offset="1" stop-color="white"/>
  </linearGradient>
  <linearGradient id="paint27_linear_1423_8272" x1="145.393" y1="91.6993" x2="145.911" y2="58.8198" gradientUnits="userSpaceOnUse">
  <stop stop-color="white" stop-opacity="0"/>
  <stop offset="1" stop-color="white"/>
  </linearGradient>
  <linearGradient id="paint28_linear_1423_8272" x1="145.217" y1="87.2338" x2="145.717" y2="55.5378" gradientUnits="userSpaceOnUse">
  <stop stop-color="white" stop-opacity="0"/>
  <stop offset="1" stop-color="white"/>
  </linearGradient>
  <linearGradient id="paint29_linear_1423_8272" x1="144.91" y1="81.7016" x2="145.362" y2="53.0415" gradientUnits="userSpaceOnUse">
  <stop stop-color="white" stop-opacity="0"/>
  <stop offset="1" stop-color="white"/>
  </linearGradient>
  <linearGradient id="paint30_linear_1423_8272" x1="144.167" y1="75.5658" x2="144.552" y2="51.1755" gradientUnits="userSpaceOnUse">
  <stop stop-color="white" stop-opacity="0"/>
  <stop offset="1" stop-color="white"/>
  </linearGradient>
  <linearGradient id="paint31_linear_1423_8272" x1="143.378" y1="69.3166" x2="143.683" y2="49.9463" gradientUnits="userSpaceOnUse">
  <stop stop-color="white" stop-opacity="0"/>
  <stop offset="1" stop-color="white"/>
  </linearGradient>
  <linearGradient id="paint32_linear_1423_8272" x1="142.361" y1="64.9812" x2="142.615" y2="48.8367" gradientUnits="userSpaceOnUse">
  <stop stop-color="white" stop-opacity="0"/>
  <stop offset="1" stop-color="white"/>
  </linearGradient>
  <linearGradient id="paint33_linear_1423_8272" x1="141.13" y1="61.826" x2="141.348" y2="47.9885" gradientUnits="userSpaceOnUse">
  <stop stop-color="white" stop-opacity="0"/>
  <stop offset="1" stop-color="white"/>
  </linearGradient>
  <linearGradient id="paint34_linear_1423_8272" x1="139.994" y1="58.7993" x2="140.188" y2="46.4903" gradientUnits="userSpaceOnUse">
  <stop stop-color="white" stop-opacity="0"/>
  <stop offset="1" stop-color="white"/>
  </linearGradient>
  <linearGradient id="paint35_linear_1423_8272" x1="138.707" y1="56.0799" x2="138.977" y2="38.9131" gradientUnits="userSpaceOnUse">
  <stop stop-color="white" stop-opacity="0"/>
  <stop offset="1" stop-color="white"/>
  </linearGradient>
  <linearGradient id="paint36_linear_1423_8272" x1="137.724" y1="52.6589" x2="138.054" y2="31.7326" gradientUnits="userSpaceOnUse">
  <stop stop-color="white" stop-opacity="0"/>
  <stop offset="1" stop-color="white"/>
  </linearGradient>
  <linearGradient id="paint37_linear_1423_8272" x1="136.65" y1="48.8568" x2="137.033" y2="24.544" gradientUnits="userSpaceOnUse">
  <stop stop-color="white" stop-opacity="0"/>
  <stop offset="1" stop-color="white"/>
  </linearGradient>
  <linearGradient id="paint38_linear_1423_8272" x1="135.926" y1="44.655" x2="136.349" y2="17.8319" gradientUnits="userSpaceOnUse">
  <stop stop-color="white" stop-opacity="0"/>
  <stop offset="1" stop-color="white"/>
  </linearGradient>
  <linearGradient id="paint39_linear_1423_8272" x1="135.357" y1="40.1719" x2="135.8" y2="12.0257" gradientUnits="userSpaceOnUse">
  <stop stop-color="white" stop-opacity="0"/>
  <stop offset="1" stop-color="white"/>
  </linearGradient>
  <linearGradient id="paint40_linear_1423_8272" x1="135.061" y1="36.9967" x2="135.537" y2="6.83142" gradientUnits="userSpaceOnUse">
  <stop stop-color="white" stop-opacity="0"/>
  <stop offset="1" stop-color="white"/>
  </linearGradient>
  <linearGradient id="paint41_linear_1423_8272" x1="135.073" y1="33.1883" x2="135.552" y2="2.74714" gradientUnits="userSpaceOnUse">
  <stop stop-color="white" stop-opacity="0"/>
  <stop offset="1" stop-color="white"/>
  </linearGradient>
  <linearGradient id="paint42_linear_1423_8272" x1="135.368" y1="30.0793" x2="135.85" y2="-0.519674" gradientUnits="userSpaceOnUse">
  <stop stop-color="white" stop-opacity="0"/>
  <stop offset="1" stop-color="white"/>
  </linearGradient>
  <linearGradient id="paint43_linear_1423_8272" x1="136.096" y1="27.7077" x2="136.586" y2="-3.41102" gradientUnits="userSpaceOnUse">
  <stop stop-color="white" stop-opacity="0"/>
  <stop offset="1" stop-color="white"/>
  </linearGradient>
  <linearGradient id="paint44_linear_1423_8272" x1="136.966" y1="25.757" x2="137.459" y2="-5.50384" gradientUnits="userSpaceOnUse">
  <stop stop-color="white" stop-opacity="0"/>
  <stop offset="1" stop-color="white"/>
  </linearGradient>
  <linearGradient id="paint45_linear_1423_8272" x1="138.027" y1="23.9975" x2="138.521" y2="-7.31358" gradientUnits="userSpaceOnUse">
  <stop stop-color="white" stop-opacity="0"/>
  <stop offset="1" stop-color="white"/>
  </linearGradient>
  <linearGradient id="paint46_linear_1423_8272" x1="139.189" y1="22.2853" x2="139.679" y2="-8.84885" gradientUnits="userSpaceOnUse">
  <stop stop-color="white" stop-opacity="0"/>
  <stop offset="1" stop-color="white"/>
  </linearGradient>
  <linearGradient id="paint47_linear_1423_8272" x1="140.504" y1="20.1808" x2="140.983" y2="-10.223" gradientUnits="userSpaceOnUse">
  <stop stop-color="white" stop-opacity="0"/>
  <stop offset="1" stop-color="white"/>
  </linearGradient>
  <linearGradient id="paint48_linear_1423_8272" x1="141.779" y1="17.5231" x2="142.237" y2="-11.5675" gradientUnits="userSpaceOnUse">
  <stop stop-color="white" stop-opacity="0"/>
  <stop offset="1" stop-color="white"/>
  </linearGradient>
  <linearGradient id="paint49_linear_1423_8272" x1="142.973" y1="13.6872" x2="143.394" y2="-13.0051" gradientUnits="userSpaceOnUse">
  <stop stop-color="white" stop-opacity="0"/>
  <stop offset="1" stop-color="white"/>
  </linearGradient>
  <linearGradient id="paint50_linear_1423_8272" x1="144.227" y1="9.22973" x2="144.602" y2="-14.6198" gradientUnits="userSpaceOnUse">
  <stop stop-color="white" stop-opacity="0"/>
  <stop offset="1" stop-color="white"/>
  </linearGradient>
  <linearGradient id="paint51_linear_1423_8272" x1="145.257" y1="3.30286" x2="145.556" y2="-15.6992" gradientUnits="userSpaceOnUse">
  <stop stop-color="white" stop-opacity="0"/>
  <stop offset="1" stop-color="white"/>
  </linearGradient>
  <linearGradient id="paint52_linear_1423_8272" x1="146.158" y1="-3.84433" x2="146.401" y2="-19.306" gradientUnits="userSpaceOnUse">
  <stop stop-color="white" stop-opacity="0"/>
  <stop offset="1" stop-color="white"/>
  </linearGradient>
  </defs>
</svg>
