<svg width="50" height="50" viewBox="0 0 50 50" fill="none" xmlns="http://www.w3.org/2000/svg">
<circle cx="25" cy="25" r="25" fill="#F26F6F"/>
<path fill-rule="evenodd" clip-rule="evenodd" d="M13.0425 37.0644L14.7262 30.9175C13.6875 29.1187 13.1412 27.0775 13.1419 24.9869C13.145 18.4462 18.4675 13.125 25.0087 13.125C28.1831 13.1263 31.1619 14.3619 33.4025 16.6037C35.6425 18.8463 36.8762 21.8263 36.875 24.9963C36.8725 31.5369 31.5487 36.8587 25.0087 36.8587H25.0037C23.0181 36.8581 21.0662 36.36 19.3331 35.4144L13.0425 37.0644Z" fill="white"/>
<path fill-rule="evenodd" clip-rule="evenodd" d="M13.0427 37.3769C12.9602 37.3769 12.8802 37.3444 12.8208 37.2844C12.7427 37.205 12.7121 37.0894 12.7414 36.9825L14.3908 30.96C13.3683 29.1437 12.8289 27.0812 12.8302 24.9875C12.8327 18.2737 18.2958 12.8125 25.0089 12.8125C28.2652 12.8138 31.3246 14.0819 33.6239 16.3831C35.9233 18.685 37.1889 21.7437 37.1877 24.9963C37.1852 31.7094 31.7214 37.1712 25.0089 37.1712C23.0158 37.1706 21.0439 36.6787 19.2939 35.7481L13.1221 37.3662C13.0958 37.3737 13.0696 37.3769 13.0427 37.3769Z" fill="white"/>
<path fill-rule="evenodd" clip-rule="evenodd" d="M25.009 13.125C28.1834 13.1263 31.1621 14.3619 33.4027 16.6038C35.6427 18.8463 36.8765 21.8263 36.8752 24.9963C36.8727 31.5369 31.549 36.8587 25.009 36.8587H25.004C23.0184 36.8581 21.0665 36.36 19.3334 35.4144L13.0427 37.0644L14.7265 30.9175C13.6877 29.1187 13.1415 27.0775 13.1421 24.9869C13.1452 18.4462 18.4677 13.125 25.009 13.125ZM25.009 12.5C18.124 12.5 12.5202 18.1012 12.5171 24.9869C12.5165 27.0913 13.0477 29.165 14.0552 31.0006L12.4396 36.9C12.3809 37.1156 12.4409 37.3456 12.5984 37.5044C12.7171 37.6244 12.8777 37.69 13.0427 37.69C13.0959 37.69 13.149 37.6831 13.2015 37.6694L19.2559 36.0819C21.0234 36.9994 23.0046 37.4837 25.004 37.4844C31.894 37.4844 37.4977 31.8825 37.5009 24.9969C37.5021 21.66 36.204 18.5225 33.8459 16.1625C31.4865 13.8019 28.3484 12.5013 25.009 12.5Z" fill="#CFD8DC"/>
<path fill-rule="evenodd" clip-rule="evenodd" d="M31.985 18.0202C30.1225 16.1564 27.6469 15.1295 25.0119 15.1289C19.5719 15.1289 15.1475 19.5514 15.145 24.9877C15.1444 26.8508 15.6656 28.6645 16.6531 30.2352L16.8881 30.6083L15.8913 34.2464L19.6244 33.2677L19.985 33.4814C21.4988 34.3802 23.235 34.8552 25.005 34.8558H25.0088C30.445 34.8558 34.8694 30.4327 34.8713 24.9958C34.8719 22.3614 33.8475 19.8839 31.985 18.0202Z" fill="#F26F6F"/>
<path fill-rule="evenodd" clip-rule="evenodd" d="M22.0424 20.0282C21.8205 19.5344 21.5868 19.5244 21.3749 19.5157C21.2018 19.5082 21.0043 19.5088 20.8068 19.5088C20.6093 19.5088 20.288 19.5832 20.0162 19.8801C19.7443 20.1769 18.978 20.8938 18.978 22.3526C18.978 23.8113 20.0405 25.2213 20.1887 25.4188C20.3368 25.6163 22.2399 28.7057 25.2537 29.8944C27.758 30.8819 28.268 30.6857 28.8118 30.6363C29.3555 30.5869 30.5662 29.9194 30.813 29.2269C31.0599 28.5344 31.0599 27.9413 30.9862 27.8176C30.9118 27.6938 30.7143 27.6201 30.418 27.4713C30.1218 27.3226 28.6637 26.6057 28.3918 26.5069C28.1199 26.4082 27.9224 26.3588 27.7243 26.6557C27.5268 26.9519 26.9587 27.6201 26.7855 27.8176C26.6124 28.0157 26.4393 28.0407 26.143 27.8919C25.8468 27.7432 24.8918 27.4307 23.7587 26.4207C22.8774 25.6351 22.2824 24.6644 22.1093 24.3676C21.9362 24.0713 22.0905 23.9107 22.2393 23.7626C22.3724 23.6294 22.5355 23.4163 22.6843 23.2432C22.8324 23.0701 22.8818 22.9463 22.9805 22.7488C23.0793 22.5507 23.0299 22.3776 22.9555 22.2294C22.8824 22.0807 22.3062 20.6144 22.0424 20.0282Z" fill="white"/>
</svg>
