<svg width="50" height="50" viewBox="0 0 50 50" fill="none" xmlns="http://www.w3.org/2000/svg">
<circle cx="25" cy="25" r="25" fill="#F26F6F"/>
<path fill-rule="evenodd" clip-rule="evenodd" d="M11.4482 38.6729L13.3565 31.7065C12.1792 29.6679 11.5602 27.3545 11.5609 24.9851C11.5644 17.5724 17.5966 11.5416 25.01 11.5416C28.6076 11.543 31.9835 12.9434 34.5229 15.4842C37.0616 18.0257 38.4598 21.403 38.4584 24.9957C38.4556 32.4084 32.422 38.4399 25.01 38.4399H25.0043C22.754 38.4392 20.5418 37.8746 18.5776 36.8029L11.4482 38.6729Z" fill="white"/>
<path fill-rule="evenodd" clip-rule="evenodd" d="M25.0101 11.5416C28.6077 11.5431 31.9837 12.9434 34.523 15.4842C37.0617 18.0257 38.46 21.4031 38.4585 24.9957C38.4557 32.4084 32.4221 38.4399 25.0101 38.4399H25.0045C22.7541 38.4392 20.542 37.8746 18.5777 36.8029L11.4484 38.6729L13.3566 31.7065C12.1794 29.6679 11.5603 27.3545 11.561 24.9851C11.5645 17.5724 17.5967 11.5416 25.0101 11.5416ZM25.0101 10.8333C17.2071 10.8333 10.8562 17.1814 10.8527 24.9851C10.852 27.3701 11.454 29.7203 12.5959 31.8007L10.7648 38.4866C10.6982 38.731 10.7662 38.9917 10.9447 39.1716C11.0793 39.3076 11.2614 39.382 11.4484 39.382C11.5086 39.382 11.5688 39.3742 11.6283 39.3586L18.4899 37.5594C20.4931 38.5993 22.7385 39.1482 25.0045 39.1489C32.8131 39.1489 39.164 32.8001 39.1676 24.9964C39.169 21.2146 37.6978 17.6588 35.0252 14.9841C32.3513 12.3088 28.7947 10.8347 25.0101 10.8333Z" fill="white"/>
<path fill-rule="evenodd" clip-rule="evenodd" d="M32.9164 17.0893C30.8056 14.9771 27.9998 13.8133 25.0135 13.8126C18.8482 13.8126 13.8339 18.8247 13.8311 24.9858C13.8303 27.0974 14.4211 29.1529 15.5403 30.933L15.8066 31.3559L14.6768 35.4791L18.9077 34.3698L19.3164 34.6121C21.032 35.6306 22.9997 36.169 25.0057 36.1697H25.01C31.1711 36.1697 36.1853 31.1568 36.1875 24.995C36.1882 22.0094 35.0272 19.2016 32.9164 17.0893Z" fill="#F26F6F"/>
<path fill-rule="evenodd" clip-rule="evenodd" d="M21.6483 19.3652C21.3968 18.8056 21.1319 18.7943 20.8918 18.7844C20.6955 18.7759 20.4717 18.7766 20.2479 18.7766C20.024 18.7766 19.66 18.8609 19.3518 19.1973C19.0437 19.5338 18.1753 20.3462 18.1753 21.9995C18.1753 23.6527 19.3795 25.2507 19.5473 25.4746C19.7152 25.6984 21.8721 29.1997 25.2877 30.5469C28.126 31.6661 28.704 31.4437 29.3202 31.3877C29.9365 31.3318 31.3085 30.5753 31.5883 29.7904C31.8681 29.0056 31.8681 28.3334 31.7845 28.1931C31.7002 28.0529 31.4764 27.9693 31.1406 27.8007C30.8049 27.6321 29.1523 26.8197 28.8442 26.7078C28.5361 26.5959 28.3123 26.5399 28.0877 26.8764C27.8639 27.2121 27.22 27.9693 27.0238 28.1931C26.8276 28.4177 26.6314 28.446 26.2956 28.2774C25.9599 28.1089 24.8775 27.7547 23.5933 26.61C22.5946 25.7196 21.9203 24.6196 21.724 24.2831C21.5278 23.9474 21.7028 23.7654 21.8714 23.5975C22.0223 23.4466 22.2071 23.2051 22.3757 23.0089C22.5436 22.8126 22.5995 22.6724 22.7115 22.4486C22.8234 22.224 22.7674 22.0278 22.6831 21.8599C22.6003 21.6914 21.9472 20.0296 21.6483 19.3652Z" fill="white"/>
</svg>
