<svg width="253" height="37" viewBox="0 0 253 37" fill="none" xmlns="http://www.w3.org/2000/svg">
<path d="M19.64 1.92L18.72 6C16.4267 5.30667 14.3867 4.96 12.6 4.96C10.4933 4.96 8.93333 5.58667 7.92 6.84C7.25333 7.66667 6.92 8.58667 6.92 9.6C6.92 11.44 8.32 13.12 11.12 14.64C14.0533 16.24 15.72 17.1867 16.12 17.48C19.8267 20.2 21.68 23.1467 21.68 26.32C21.68 29.0933 20.5733 31.2667 18.36 32.84C16.44 34.2 14.0533 34.88 11.2 34.88C6.37333 34.88 2.81333 33.2667 0.52 30.04L4.16 27.4C4.53333 27.9333 5.38667 28.8133 6.72 30.04C7.57333 30.6533 8.93333 30.96 10.8 30.96C12.48 30.96 13.7733 30.72 14.68 30.24C16.4667 29.28 17.36 27.92 17.36 26.16C17.36 25.5467 17.2267 25.0133 16.96 24.56C15.7867 22.56 13.8 20.8267 11 19.36C6.33333 16.9067 3.56 14.7867 2.68 13C2.2 12.04 1.96 10.8933 1.96 9.56C1.96 6.6 2.93333 4.29333 4.88 2.64C6.37333 1.36 8.72 0.719999 11.92 0.719999C13.8667 0.719999 16.44 1.12 19.64 1.92ZM24.5063 2H28.7063L28.7463 19.84L37.8663 11.72L40.5863 15.12L31.7463 22.48L41.7463 31L38.3863 34.56L28.9063 25.84L28.8263 34H24.3463L24.5063 2ZM45.0188 13.4L50.0188 13.16L49.4988 34H45.0588L45.0188 13.4ZM47.8988 2.6C46.9654 2.6 46.1521 2.88 45.4588 3.44C44.7654 4 44.4188 4.73333 44.4188 5.64C44.4188 7.21333 45.1788 8.17333 46.6988 8.52C46.9388 8.57333 47.2188 8.6 47.5388 8.6C48.3921 8.6 49.1254 8.34666 49.7388 7.84C50.3788 7.33333 50.7254 6.66666 50.7788 5.84C50.8321 4.98666 50.5788 4.24 50.0188 3.6C49.4588 2.93333 48.7521 2.6 47.8988 2.6ZM53.2191 2H57.5791L57.9391 34H52.9791L53.2191 2ZM61.6175 2H65.9775L66.3375 34H61.3775L61.6175 2ZM83.9759 13.84L83.0159 17.2C81.1759 16.3467 79.5359 15.92 78.0959 15.92C76.2826 15.92 75.2026 16.28 74.8559 17C74.6426 17.4533 74.5359 17.84 74.5359 18.16C74.5359 18.64 74.7893 19.0933 75.2959 19.52C75.7226 19.8933 76.4959 20.4267 77.6159 21.12C79.1093 22.0267 80.1493 22.6533 80.7359 23C83.7759 24.84 85.2426 26.7467 85.1359 28.72C85.0559 30.3733 84.1893 31.7467 82.5359 32.84C81.0693 33.8267 79.4693 34.32 77.7359 34.32C77.3626 34.32 76.9359 34.28 76.4559 34.2C73.9759 33.8 71.9226 33.1867 70.2959 32.36L71.6559 29C74.4826 30.1733 76.5093 30.76 77.7359 30.76C78.4559 30.76 79.1093 30.6 79.6959 30.28C80.3893 29.9067 80.7359 29.3867 80.7359 28.72C80.7359 28.5067 80.6959 28.2933 80.6159 28.08C80.3493 27.4133 79.2159 26.5333 77.2159 25.44C74.3359 23.8667 72.4826 22.7867 71.6559 22.2C70.5626 21.4267 70.0159 20.24 70.0159 18.64C70.0159 17.3333 70.3626 16.16 71.0559 15.12C72.3093 13.2267 74.4293 12.28 77.4159 12.28C79.6293 12.28 81.8159 12.8 83.9759 13.84ZM87.5475 32.72L109.908 32.28L110.028 35.72L87.7875 36.08L87.5475 32.72Z" fill="#F2F1E9"/>
<path d="M127.782 34.52C126.769 34.76 125.369 34.88 123.582 34.88C120.862 34.88 117.515 34.6267 113.542 34.12L114.822 2.36C119.809 1.77333 122.875 1.48 124.022 1.48C128.769 1.48 131.609 3.32 132.542 7C132.729 7.72 132.822 8.41333 132.822 9.08C132.822 12.8933 130.169 15.6 124.862 17.2C126.862 17.36 128.795 17.9867 130.662 19.08C133.729 20.8667 135.262 23.3333 135.262 26.48C135.262 28.5867 134.515 30.36 133.022 31.8C131.689 33.1067 129.942 34.0133 127.782 34.52ZM119.062 6L118.542 15.04C120.329 14.8 121.875 14.44 123.182 13.96C126.302 12.8133 127.862 11.2667 127.862 9.32C127.862 6.94667 125.969 5.76 122.182 5.76C121.115 5.76 120.075 5.84 119.062 6ZM118.582 20.04L117.982 30.64C119.289 30.8267 120.622 30.92 121.982 30.92C127.235 30.92 130.022 29.56 130.342 26.84C130.742 23.32 126.822 21.0533 118.582 20.04ZM148.211 12.4C151.517 12.3467 154.024 13.28 155.731 15.2C157.331 17.0133 158.131 19.6 158.131 22.96C158.131 26.1333 157.237 28.7467 155.451 30.8C153.557 32.96 151.051 34.04 147.931 34.04C141.264 34.04 138.037 30.5067 138.251 23.44C138.331 20.2133 139.184 17.6133 140.811 15.64C142.597 13.5333 145.064 12.4533 148.211 12.4ZM148.131 16.32C146.184 16.4533 144.677 17.24 143.611 18.68C142.624 20.0133 142.131 21.68 142.131 23.68C142.131 25.6 142.557 27.16 143.411 28.36C144.371 29.7467 145.771 30.44 147.611 30.44C149.584 30.44 151.157 29.8133 152.331 28.56C153.504 27.3067 154.171 25.68 154.331 23.68C154.491 21.6267 154.024 19.88 152.931 18.44C151.757 16.8933 150.157 16.1867 148.131 16.32ZM170.945 12.4C174.252 12.3467 176.758 13.28 178.465 15.2C180.065 17.0133 180.865 19.6 180.865 22.96C180.865 26.1333 179.972 28.7467 178.185 30.8C176.292 32.96 173.785 34.04 170.665 34.04C163.998 34.04 160.772 30.5067 160.985 23.44C161.065 20.2133 161.918 17.6133 163.545 15.64C165.332 13.5333 167.798 12.4533 170.945 12.4ZM170.865 16.32C168.918 16.4533 167.412 17.24 166.345 18.68C165.358 20.0133 164.865 21.68 164.865 23.68C164.865 25.6 165.292 27.16 166.145 28.36C167.105 29.7467 168.505 30.44 170.345 30.44C172.318 30.44 173.892 29.8133 175.065 28.56C176.238 27.3067 176.905 25.68 177.065 23.68C177.225 21.6267 176.758 19.88 175.665 18.44C174.492 16.8933 172.892 16.1867 170.865 16.32ZM197.999 13.84L197.039 17.2C195.199 16.3467 193.559 15.92 192.119 15.92C190.306 15.92 189.226 16.28 188.879 17C188.666 17.4533 188.559 17.84 188.559 18.16C188.559 18.64 188.813 19.0933 189.319 19.52C189.746 19.8933 190.519 20.4267 191.639 21.12C193.133 22.0267 194.173 22.6533 194.759 23C197.799 24.84 199.266 26.7467 199.159 28.72C199.079 30.3733 198.213 31.7467 196.559 32.84C195.093 33.8267 193.493 34.32 191.759 34.32C191.386 34.32 190.959 34.28 190.479 34.2C187.999 33.8 185.946 33.1867 184.319 32.36L185.679 29C188.506 30.1733 190.533 30.76 191.759 30.76C192.479 30.76 193.133 30.6 193.719 30.28C194.413 29.9067 194.759 29.3867 194.759 28.72C194.759 28.5067 194.719 28.2933 194.639 28.08C194.373 27.4133 193.239 26.5333 191.239 25.44C188.359 23.8667 186.506 22.7867 185.679 22.2C184.586 21.4267 184.039 20.24 184.039 18.64C184.039 17.3333 184.386 16.16 185.079 15.12C186.333 13.2267 188.453 12.28 191.439 12.28C193.653 12.28 195.839 12.8 197.999 13.84ZM205.851 5.64L209.931 5.32L209.891 12.52L215.051 12.4L214.931 16.44L209.891 16.48L209.811 34H205.451L205.691 16.48L201.611 16.52L201.771 12.76L205.771 12.64L205.851 5.64ZM221.788 25.52C222.401 28.8267 224.534 30.48 228.188 30.48C230.428 30.48 232.734 29.7467 235.108 28.28L236.508 32.12C233.894 33.2667 231.134 33.8667 228.228 33.92C225.881 33.9467 223.828 33.4933 222.067 32.56C218.974 30.9067 217.428 27.9867 217.428 23.8C217.428 20.36 218.588 17.5333 220.908 15.32C221.761 14.52 222.841 13.88 224.148 13.4C225.481 12.92 226.748 12.6933 227.947 12.72C230.854 12.7733 233.068 13.6933 234.588 15.48C236.001 17.1333 236.708 19.44 236.708 22.4C236.708 23.0667 236.668 23.6667 236.588 24.2L221.788 25.52ZM221.868 22.08L232.508 21.28C232.668 19.8933 232.281 18.7467 231.348 17.84C230.414 16.9333 229.241 16.48 227.828 16.48C226.974 16.48 226.161 16.6667 225.388 17.04C223.334 18.0267 222.161 19.7067 221.868 22.08ZM239.542 13.2L243.662 13.04L243.742 15.36C245.182 13.2 246.835 12.12 248.702 12.12C249.928 12.12 251.168 12.4267 252.422 13.04L251.662 17.48C250.968 16.92 249.982 16.5867 248.702 16.48C247.368 16.3733 246.262 16.88 245.382 18C244.662 18.9867 244.248 20.1867 244.142 21.6C243.982 23.8667 243.955 28 244.062 34H239.622L239.542 13.2Z" fill="#F26F6F"/>
</svg>
